# MagicaVoxel @ Ephtracy

# group
o 

# material
mtllib legs.mtl
usemtl palette

# normals
vn -1 0 0
vn 1 0 0
vn 0 0 1
vn 0 0 -1
vn 0 -1 0
vn 0 1 0

# texcoords
vt 0.958984 0.5
vt 0.966797 0.5
vt 0.994141 0.5

# verts
v -0.5 0 0.2
v -0.5 0 -0.1
v -0.5 0.1 0.2
v -0.5 0.1 -0.1
v -0.5 0.2 0.2
v -0.5 0.2 -0.1
v -0.5 0.3 0.2
v -0.5 0.3 -0.1
v -0.1 0 0.2
v -0.1 0 -0.1
v -0.1 0.1 0.2
v -0.1 0.1 -0.1
v -0.1 0.2 0.2
v -0.1 0.2 -0.1
v -0.1 0.3 0.2
v -0.1 0.3 -0.1
v -0.2 0 0.2
v -0.2 0 -0.1
v -0.2 0.1 0.2
v -0.2 0.1 -0.1
v -0.2 0.2 0.2
v -0.2 0.2 -0.1
v -0.2 0.3 0.2
v -0.2 0.3 -0.1
v 0.2 0 0.2
v 0.2 0 -0.1
v 0.2 0.1 0.2
v 0.2 0.1 -0.1
v 0.2 0.2 0.2
v 0.2 0.2 -0.1
v 0.2 0.3 0.2
v 0.2 0.3 -0.1
v -0.5 0 0.2
v -0.5 0.1 0.2
v -0.5 0.2 0.2
v -0.5 0.3 0.2
v -0.2 0 0.2
v -0.2 0.1 0.2
v -0.2 0.2 0.2
v -0.2 0.3 0.2
v -0.1 0 0.2
v -0.1 0.1 0.2
v -0.1 0.2 0.2
v -0.1 0.3 0.2
v 0.2 0 0.2
v 0.2 0.1 0.2
v 0.2 0.2 0.2
v 0.2 0.3 0.2
v -0.5 0 -0.1
v -0.5 0.1 -0.1
v -0.5 0.2 -0.1
v -0.5 0.3 -0.1
v -0.2 0 -0.1
v -0.2 0.1 -0.1
v -0.2 0.2 -0.1
v -0.2 0.3 -0.1
v -0.1 0 -0.1
v -0.1 0.1 -0.1
v -0.1 0.2 -0.1
v -0.1 0.3 -0.1
v 0.2 0 -0.1
v 0.2 0.1 -0.1
v 0.2 0.2 -0.1
v 0.2 0.3 -0.1
v -0.5 0 0.2
v -0.2 0 0.2
v -0.1 0 0.2
v 0.2 0 0.2
v -0.5 0 -0.1
v -0.2 0 -0.1
v -0.1 0 -0.1
v 0.2 0 -0.1
v -0.5 0.3 0.2
v -0.2 0.3 0.2
v -0.1 0.3 0.2
v 0.2 0.3 0.2
v -0.5 0.3 -0.1
v -0.2 0.3 -0.1
v -0.1 0.3 -0.1
v 0.2 0.3 -0.1

# faces
f 3/3/1 2/3/1 1/3/1
f 4/3/1 2/3/1 3/3/1
f 5/1/1 4/1/1 3/1/1
f 6/1/1 4/1/1 5/1/1
f 7/2/1 6/2/1 5/2/1
f 8/2/1 6/2/1 7/2/1
f 11/3/1 10/3/1 9/3/1
f 12/3/1 10/3/1 11/3/1
f 13/1/1 12/1/1 11/1/1
f 14/1/1 12/1/1 13/1/1
f 15/2/1 14/2/1 13/2/1
f 16/2/1 14/2/1 15/2/1
f 17/3/2 18/3/2 19/3/2
f 19/3/2 18/3/2 20/3/2
f 19/1/2 20/1/2 21/1/2
f 21/1/2 20/1/2 22/1/2
f 21/2/2 22/2/2 23/2/2
f 23/2/2 22/2/2 24/2/2
f 25/3/2 26/3/2 27/3/2
f 27/3/2 26/3/2 28/3/2
f 27/1/2 28/1/2 29/1/2
f 29/1/2 28/1/2 30/1/2
f 29/2/2 30/2/2 31/2/2
f 31/2/2 30/2/2 32/2/2
f 37/3/3 34/3/3 33/3/3
f 38/1/3 35/1/3 34/1/3
f 38/3/3 34/3/3 37/3/3
f 39/2/3 36/2/3 35/2/3
f 39/1/3 35/1/3 38/1/3
f 40/2/3 36/2/3 39/2/3
f 45/3/3 42/3/3 41/3/3
f 46/1/3 43/1/3 42/1/3
f 46/3/3 42/3/3 45/3/3
f 47/2/3 44/2/3 43/2/3
f 47/1/3 43/1/3 46/1/3
f 48/2/3 44/2/3 47/2/3
f 49/3/4 50/3/4 53/3/4
f 50/1/4 51/1/4 54/1/4
f 53/3/4 50/3/4 54/3/4
f 51/2/4 52/2/4 55/2/4
f 54/1/4 51/1/4 55/1/4
f 55/2/4 52/2/4 56/2/4
f 57/3/4 58/3/4 61/3/4
f 58/1/4 59/1/4 62/1/4
f 61/3/4 58/3/4 62/3/4
f 59/2/4 60/2/4 63/2/4
f 62/1/4 59/1/4 63/1/4
f 63/2/4 60/2/4 64/2/4
f 69/3/5 66/3/5 65/3/5
f 70/3/5 66/3/5 69/3/5
f 71/3/5 68/3/5 67/3/5
f 72/3/5 68/3/5 71/3/5
f 73/2/6 74/2/6 77/2/6
f 77/2/6 74/2/6 78/2/6
f 75/2/6 76/2/6 79/2/6
f 79/2/6 76/2/6 80/2/6
