# Blender v2.93.4 OBJ File: ''
# www.blender.org
mtllib road3.mtl
o Cube.002
v -13.609995 -0.805877 -0.620086
v -13.609995 -0.075034 -0.620086
v -13.609995 -0.805877 -1.186990
v -13.609995 -0.075034 -1.186990
v -12.584722 -0.805877 -0.620086
v -12.584722 -0.075034 -0.620086
v -12.584722 -0.805877 -1.186990
v -12.584722 -0.075034 -1.186990
v -13.609995 -0.805877 0.216064
v -13.609995 -0.075034 0.216064
v -12.584722 -0.075034 0.216064
v -12.584722 -0.805877 0.216064
v -14.093852 -0.805877 -0.620086
v -14.093852 -0.075034 -0.620086
v -14.093852 -0.805877 0.216064
v -14.093852 -0.075034 0.216064
v -14.604467 -0.805877 -0.620086
v -14.604467 -0.075034 -0.620086
v -14.604467 -0.805877 0.216064
v -14.604467 -0.075034 0.216064
v -14.093852 -0.805877 0.898830
v -14.093852 -0.075034 0.898830
v -14.604467 -0.805877 0.898830
v -14.604467 -0.075034 0.898830
v -15.123636 -0.805877 0.453503
v -15.123636 -0.075034 0.453503
v -15.123636 -0.805877 1.136269
v -15.123636 -0.075034 1.136269
v -15.806422 -0.805877 0.552762
v -15.806422 -0.075034 0.552762
v -15.806422 -0.805877 1.235528
v -15.806422 -0.075034 1.235528
v -16.273199 -0.805877 0.552762
v -16.273199 -0.075034 0.552762
v -16.273199 -0.805877 1.235528
v -16.273199 -0.075034 1.235528
v -15.806422 -0.805877 0.061491
v -15.806422 -0.075034 0.061491
v -16.273199 -0.805877 0.061491
v -16.273199 -0.075034 0.061491
v -15.806422 -0.805877 -0.381230
v -15.806422 -0.075034 -0.381230
v -16.273199 -0.805877 -0.381230
v -16.273199 -0.075034 -0.381230
v -17.023117 -0.938204 0.061491
v -17.023117 -0.207361 0.061491
v -17.023117 -0.938204 -0.381230
v -17.023117 -0.207361 -0.381230
v -17.444361 -0.938204 0.061491
v -17.444361 -0.207361 0.061491
v -17.444361 -0.938204 -0.381230
v -17.444361 -0.207361 -0.381230
vt 0.375000 0.000000
vt 0.625000 0.000000
vt 0.625000 0.250000
vt 0.375000 0.250000
vt 0.625000 0.500000
vt 0.375000 0.500000
vt 0.625000 0.750000
vt 0.375000 0.750000
vt 0.875000 0.750000
vt 0.875000 0.750000
vt 0.625000 0.750000
vt 0.125000 0.500000
vt 0.125000 0.750000
vt 0.875000 0.500000
vt 0.375000 0.750000
vt 0.625000 1.000000
vt 0.375000 1.000000
vt 0.875000 0.750000
vt 0.875000 0.750000
vt 0.125000 0.750000
vt 0.875000 0.750000
vt 0.875000 0.750000
vt 0.375000 0.000000
vt 0.625000 0.000000
vt 0.625000 1.000000
vt 0.375000 1.000000
vt 0.125000 0.750000
vt 0.125000 0.750000
vt 0.625000 0.000000
vt 0.375000 0.000000
vt 0.375000 0.000000
vt 0.625000 0.000000
vt 0.125000 0.750000
vt 0.125000 0.750000
vt 0.125000 0.750000
vt 0.125000 0.750000
vt 0.375000 1.000000
vt 0.625000 1.000000
vt 0.625000 1.000000
vt 0.375000 1.000000
vt 0.875000 0.750000
vt 0.875000 0.750000
vt 0.625000 1.000000
vt 0.375000 1.000000
vt 0.125000 0.750000
vt 0.125000 0.750000
vt 0.125000 0.750000
vt 0.125000 0.750000
vt 0.875000 0.750000
vt 0.875000 0.750000
vt 0.375000 0.000000
vt 0.625000 0.000000
vt 0.875000 0.750000
vt 0.875000 0.750000
vt 0.875000 0.750000
vt 0.875000 0.750000
vt 0.375000 0.000000
vt 0.625000 0.000000
vt 0.625000 1.000000
vt 0.375000 1.000000
vt 0.625000 0.000000
vt 0.375000 0.000000
vt 0.375000 0.000000
vt 0.625000 0.000000
vt 0.625000 1.000000
vt 0.375000 1.000000
vt 0.125000 0.750000
vt 0.125000 0.750000
vt 0.875000 0.750000
vt 0.875000 0.750000
vt 0.875000 0.750000
vt 0.875000 0.750000
vt 0.625000 0.000000
vt 0.375000 0.000000
vt 0.125000 0.750000
vt 0.125000 0.750000
vt 0.375000 0.000000
vt 0.625000 0.000000
vt 0.625000 0.000000
vt 0.375000 0.000000
vt 0.375000 0.000000
vt 0.625000 0.000000
vt 0.125000 0.750000
vt 0.125000 0.750000
vt 0.125000 0.750000
vt 0.125000 0.750000
vt 0.875000 0.750000
vt 0.875000 0.750000
vt 0.875000 0.750000
vt 0.875000 0.750000
vt 0.375000 0.000000
vt 0.625000 0.000000
vt 0.625000 0.000000
vt 0.375000 0.000000
vt 0.375000 0.000000
vt 0.625000 0.000000
vt 0.625000 0.000000
vt 0.375000 0.000000
vt 0.125000 0.750000
vt 0.125000 0.750000
vn -1.0000 0.0000 0.0000
vn 0.0000 0.0000 -1.0000
vn 1.0000 0.0000 0.0000
vn 0.0000 1.0000 0.0000
vn 0.0000 -1.0000 0.0000
vn 0.0000 0.0000 1.0000
vn 0.4159 0.0000 0.9094
vn -0.4159 0.0000 -0.9094
vn -0.1439 0.0000 -0.9896
vn 0.1439 0.0000 0.9896
vn 0.1738 -0.9848 0.0000
vn -0.1738 0.9848 0.0000
usemtl None
s off
f 1/1/1 2/2/1 4/3/1 3/4/1
f 3/4/2 4/3/2 8/5/2 7/6/2
f 7/6/3 8/5/3 6/7/3 5/8/3
f 6/7/4 2/9/4 10/10/4 11/11/4
f 3/12/5 7/6/5 5/8/5 1/13/5
f 8/5/4 4/14/4 2/9/4 6/7/4
f 12/15/6 11/11/6 10/16/6 9/17/6
f 5/8/3 6/7/3 11/11/3 12/15/3
f 10/10/4 2/9/4 14/18/4 16/19/4
f 1/13/5 5/8/5 12/15/5 9/20/5
f 16/19/4 14/18/4 18/21/4 20/22/4
f 2/2/2 1/1/2 13/23/2 14/24/2
f 9/17/6 10/16/6 16/25/6 15/26/6
f 1/13/5 9/20/5 15/27/5 13/28/5
f 18/29/1 17/30/1 19/31/1 20/32/1
f 14/24/2 13/23/2 17/30/2 18/29/2
f 13/28/5 15/27/5 19/33/5 17/34/5
f 19/33/5 15/27/5 21/35/5 23/36/5
f 21/37/6 22/38/6 24/39/6 23/40/6
f 16/19/4 20/22/4 24/41/4 22/42/4
f 23/40/7 24/39/7 28/43/7 27/44/7
f 15/26/3 16/25/3 22/38/3 21/37/3
f 25/45/5 27/46/5 31/47/5 29/48/5
f 24/41/4 20/22/4 26/49/4 28/50/4
f 20/32/8 19/31/8 25/51/8 26/52/8
f 19/33/5 23/36/5 27/46/5 25/45/5
f 32/53/4 30/54/4 34/55/4 36/56/4
f 26/52/9 25/51/9 29/57/9 30/58/9
f 28/50/4 26/49/4 30/54/4 32/53/4
f 27/44/10 28/43/10 32/59/10 31/60/10
f 34/61/1 33/62/1 35/63/1 36/64/1
f 31/60/6 32/59/6 36/65/6 35/66/6
f 29/48/5 31/47/5 35/67/5 33/68/5
f 34/55/4 30/54/4 38/69/4 40/70/4
f 40/70/4 38/69/4 42/71/4 44/72/4
f 33/62/1 34/61/1 40/73/1 39/74/1
f 29/48/5 33/68/5 39/75/5 37/76/5
f 30/58/3 29/57/3 37/77/3 38/78/3
f 42/79/2 41/80/2 43/81/2 44/82/2
f 38/78/3 37/77/3 41/80/3 42/79/3
f 37/76/5 39/75/5 43/83/5 41/84/5
f 43/83/11 39/75/11 45/85/11 47/86/11
f 46/87/4 48/88/4 52/89/4 50/90/4
f 40/70/12 44/72/12 48/88/12 46/87/12
f 44/82/2 43/81/2 47/91/2 48/92/2
f 39/74/6 40/73/6 46/93/6 45/94/6
f 49/95/1 50/96/1 52/97/1 51/98/1
f 45/94/6 46/93/6 50/96/6 49/95/6
f 47/86/5 45/85/5 49/99/5 51/100/5
f 48/92/2 47/91/2 51/98/2 52/97/2
