# Blender v2.93.4 OBJ File: 'ROADS.blend'
# www.blender.org
mtllib road3.mtl
o Cube.002
v -12.989782 -0.261277 0.726358
v -12.989782 0.469566 0.726358
v -12.620316 -0.261277 0.341541
v -12.713098 0.684058 0.316587
v -11.539300 -0.261277 0.819206
v -11.539300 0.469566 0.819206
v -11.665017 -0.261277 0.285224
v -11.817173 0.775336 0.134973
v -12.822800 -0.261277 1.686612
v -12.822800 0.469566 1.686612
v -11.925343 0.469566 1.525818
v -11.925343 -0.261277 1.525818
v -13.269356 -0.261277 0.764108
v -13.269356 0.469566 0.764108
v -13.120045 -0.261277 1.845480
v -13.120045 0.469566 1.845480
v -13.756747 -0.261277 1.010854
v -13.756747 0.469566 1.010854
v -13.899436 -0.261277 1.560903
v -13.899436 0.469566 1.560903
v -13.393707 -0.261277 2.336269
v -13.393707 0.469566 2.336269
v -13.783939 -0.261277 2.371357
v -13.783939 0.469566 2.371357
v -14.198167 -0.261277 1.803414
v -14.198167 0.469566 1.803414
v -14.303110 -0.261277 2.608796
v -14.303110 0.469566 2.608796
v -14.675767 -0.261277 1.727758
v -14.675767 0.469566 1.727758
v -14.873036 -0.261277 2.590463
v -14.873036 0.469566 2.590463
v -15.351149 -0.261277 2.018306
v -15.351149 0.469566 2.177491
v -15.251644 -0.261277 2.317448
v -15.251644 0.469566 2.317448
v -14.963161 -0.261277 1.376215
v -14.963161 0.469566 1.376215
v -15.761225 -0.261277 2.148082
v -15.714761 0.469566 2.312233
v -15.013870 -0.261277 1.202094
v -15.013870 0.469566 1.202094
v -15.424696 -0.261277 0.737781
v -15.424696 0.469566 0.737781
v -16.183132 -0.393603 2.837494
v -16.136667 0.337239 2.842460
v -15.938503 -0.391483 0.728112
v -15.945686 0.339323 0.729501
v -16.598656 -0.393603 2.001788
v -16.598656 0.337239 1.806828
v -16.520138 -0.395687 0.619682
v -16.527319 0.335119 0.621070
v -11.976222 -0.261277 0.158150
v -12.067810 0.563657 0.230720
v -12.276832 -0.553021 0.852441
v -12.276832 0.469566 0.852441
v -12.276397 -0.261277 1.568769
v -12.276397 0.469566 1.568769
v -12.789468 0.469566 1.270516
v -11.711510 0.469566 1.292898
v -11.711510 -0.261277 1.292898
v -12.789468 -0.440986 1.270516
v -13.273325 0.469566 1.270516
v -13.273325 -0.261277 1.270516
v -13.783939 0.469566 1.270516
v -13.783939 -0.261277 1.270516
v -12.276832 -0.261277 1.270516
v -12.276832 0.469566 1.270516
v -13.256876 -0.261277 2.090875
v -13.841688 -0.287812 1.966130
v -13.841688 0.469566 1.966130
v -13.256876 0.469566 2.090875
v -14.250638 -0.467542 2.206105
v -14.250638 0.469566 2.206105
v -14.774402 -0.541527 2.159111
v -14.774402 0.469566 2.159111
v -15.301396 -0.261277 2.160388
v -15.301396 0.469566 2.160388
v -14.988516 0.469566 1.289154
v -15.489447 0.469566 1.268241
v -14.988516 -0.261277 1.289154
v -15.489447 -0.261277 1.268241
v -16.220760 0.338281 1.334971
v -16.217169 -0.550962 1.334277
v -17.057667 0.336179 0.889933
v -17.054075 -0.394645 0.889239
v -15.013458 0.469566 1.865543
v -15.062340 0.469566 2.453955
v -15.062340 -0.261277 2.453955
v -15.013458 -0.340219 1.865543
v -15.258678 0.469566 1.466098
v -15.258678 -0.261277 1.466098
v -15.219284 0.469566 1.091297
v -15.219284 -0.261277 1.091297
v -15.037899 -0.261277 2.159749
v -15.037899 0.469566 2.159749
v -15.238981 -0.454354 1.278697
v -15.238981 0.469566 1.278697
v -13.513051 0.469566 0.887481
v -13.509741 0.469566 1.703192
v -13.513051 -0.261277 0.887481
v -13.509741 -0.636159 1.703192
v -13.588823 0.469566 2.353813
v -13.588823 -0.261277 2.353813
v -13.528632 -0.305899 1.270516
v -13.528632 0.469566 1.270516
v -13.549282 0.469566 2.028502
v -13.549282 -0.261277 2.028502
v -12.988876 0.082769 0.706468
v -12.620316 0.104362 0.177162
v -11.758968 0.104362 0.285224
v -11.633251 0.104362 0.819206
v -12.822800 0.104362 1.883329
v -11.975648 0.104362 1.525818
v -13.268450 0.082769 0.744219
v -12.975882 0.104362 1.845480
v -13.887268 0.104362 0.880747
v -14.058951 0.104362 1.560903
v -13.349705 0.104362 2.336269
v -13.783939 0.104362 2.483694
v -14.198167 0.104362 1.638031
v -14.303110 0.104362 2.845596
v -14.675767 0.104362 1.562375
v -14.873036 0.104362 2.827262
v -15.498215 0.104362 2.192469
v -15.353319 0.104362 2.317448
v -14.963161 0.104362 1.376215
v -15.574240 -0.102417 2.332382
v -14.934334 0.104362 1.202094
v -15.424696 0.104362 0.569475
v -15.996145 -0.234743 3.009519
v -15.942097 -0.025863 0.560501
v -16.523729 -0.030067 0.620376
v -12.276397 0.104362 1.765486
v -11.976222 0.104362 -0.006229
v -14.073977 0.104362 1.270516
v -11.761815 0.104362 1.292898
v -15.410285 0.104362 2.254604
v -13.112712 0.104362 2.090875
v -17.143440 -0.029016 0.889586
v -14.908978 0.104362 1.289154
v -15.219284 0.104362 1.091297
v -15.343606 0.104362 2.546920
v -13.544821 0.104362 2.466150
v -13.513051 0.104362 0.757375
v -12.805049 -0.261277 0.533949
v -12.805049 0.469566 0.533949
v -11.602159 -0.261277 0.552215
v -11.602159 0.469566 0.552215
v -12.126527 0.469566 0.505296
v -12.126527 -0.407149 0.505296
v -11.696110 0.104362 0.552215
v -12.804596 0.093566 0.441815
v -17.095505 -0.127461 2.998080
v -16.933767 0.444522 2.831020
v -17.419930 -0.127461 2.452188
v -17.606915 0.444522 2.421882
v -17.497557 0.443462 1.564347
v -17.606915 -0.286321 2.616842
v -16.980230 -0.286321 2.826055
v -17.796225 -0.287362 1.563652
v -17.885588 0.078267 1.564000
vt 0.500074 0.125000
vt 0.625000 0.125000
vt 0.625000 0.250000
vt 0.500074 0.250000
vt 0.500074 0.375000
vt 0.625000 0.375000
vt 0.625000 0.500000
vt 0.500074 0.500000
vt 0.500074 0.625000
vt 0.625000 0.625000
vt 0.625000 0.750000
vt 0.500074 0.750000
vt 0.250000 0.625000
vt 0.375000 0.625000
vt 0.375000 0.750000
vt 0.250000 0.750000
vt 0.500074 0.875000
vt 0.625000 0.875000
vt 0.625000 1.000000
vt 0.500074 1.000000
vt 0.500074 0.750000
vt 0.625000 0.750000
vt 0.625000 0.750000
vt 0.500074 0.750000
vt 0.250000 0.750000
vt 0.375000 0.750000
vt 0.375000 0.750000
vt 0.250000 0.750000
vt 0.500074 0.000000
vt 0.375000 0.000000
vt 0.375000 0.000000
vt 0.500074 0.000000
vt 0.625000 1.000000
vt 0.500074 1.000000
vt 0.125000 0.750000
vt 0.125000 0.750000
vt 0.125000 0.750000
vt 0.125000 0.750000
vt 0.500074 0.000000
vt 0.375000 0.000000
vt 0.375000 0.000000
vt 0.500074 0.000000
vt 0.500074 0.000000
vt 0.375000 0.000000
vt 0.375000 0.000000
vt 0.500074 0.000000
vt 0.125000 0.750000
vt 0.125000 0.750000
vt 0.125000 0.750000
vt 0.125000 0.750000
vt 0.125000 0.750000
vt 0.125000 0.750000
vt 0.125000 0.750000
vt 0.125000 0.750000
vt 0.500074 1.000000
vt 0.625000 1.000000
vt 0.625000 1.000000
vt 0.500074 1.000000
vt 0.625000 1.000000
vt 0.500074 1.000000
vt 0.500074 1.000000
vt 0.625000 1.000000
vt 0.625000 1.000000
vt 0.500074 1.000000
vt 0.125000 0.750000
vt 0.125000 0.750000
vt 0.125000 0.750000
vt 0.125000 0.750000
vt 0.375000 0.000000
vt 0.500074 0.000000
vt 0.125000 0.750000
vt 0.125000 0.750000
vt 0.375000 0.000000
vt 0.500074 0.000000
vt 0.625000 1.000000
vt 0.500074 1.000000
vt 0.500074 0.000000
vt 0.375000 0.000000
vt 0.375000 0.000000
vt 0.500074 0.000000
vt 0.500074 1.000000
vt 0.625000 1.000000
vt 0.625000 1.000000
vt 0.500074 1.000000
vt 0.125000 0.750000
vt 0.125000 0.750000
vt 0.125000 0.750000
vt 0.125000 0.750000
vt 0.500074 0.000000
vt 0.625000 0.000000
vt 0.625000 0.000000
vt 0.500074 0.000000
vt 0.125000 0.750000
vt 0.125000 0.750000
vt 0.125000 0.750000
vt 0.125000 0.750000
vt 0.375000 0.000000
vt 0.500074 0.000000
vt 0.500074 0.000000
vt 0.375000 0.000000
vt 0.375000 0.000000
vt 0.500074 0.000000
vt 0.500074 0.000000
vt 0.375000 0.000000
vt 0.375000 0.000000
vt 0.500074 0.000000
vt 0.125000 0.750000
vt 0.125000 0.750000
vt 0.125000 0.750000
vt 0.125000 0.750000
vt 0.125000 0.750000
vt 0.125000 0.750000
vt 0.375000 0.000000
vt 0.500074 0.000000
vt 0.625000 0.000000
vt 0.500074 0.000000
vt 0.500074 0.000000
vt 0.625000 0.000000
vt 0.625000 0.000000
vt 0.500074 0.000000
vt 0.375000 0.000000
vt 0.375000 0.000000
vt 0.500074 0.000000
vt 0.125000 0.750000
vt 0.125000 0.750000
vt 0.375000 0.000000
vt 0.125000 0.625000
vt 0.125000 0.750000
vt 0.125000 0.750000
vt 0.125000 0.750000
vt 0.125000 0.750000
vt 0.375000 0.000000
vt 0.125000 0.750000
vt 0.125000 0.750000
vt 0.125000 0.750000
vt 0.125000 0.750000
vt 0.125000 0.750000
vt 0.125000 0.750000
vt 0.125000 0.750000
vt 0.625000 0.000000
vt 0.625000 0.000000
vt 0.375000 1.000000
vt 0.375000 1.000000
vt 0.375000 1.000000
vt 0.375000 1.000000
vt 0.625000 0.000000
vt 0.625000 0.000000
vt 0.625000 0.000000
vt 0.625000 0.000000
vt 0.625000 0.000000
vt 0.375000 1.000000
vt 0.375000 1.000000
vt 0.625000 0.000000
vt 0.625000 0.000000
vt 0.625000 0.000000
vt 0.375000 0.250000
vt 0.375000 0.375000
vt 0.375000 0.875000
vt 0.625000 0.000000
vt 0.375000 0.000000
vt 0.375000 0.000000
vt 0.625000 0.000000
vt 0.625000 0.000000
vt 0.375000 1.000000
vt 0.625000 0.000000
vt 0.375000 1.000000
vt 0.625000 0.000000
vt 0.625000 0.000000
vt 0.375000 1.000000
vt 0.375000 1.000000
vt 0.625000 0.000000
vt 0.375000 0.500000
vt 0.375000 0.125000
vt 0.125000 0.500000
vt 0.250000 0.500000
vt 0.500074 0.000000
vt 0.625000 0.000000
vt 0.625000 0.000000
vt 0.500074 0.000000
vt 0.375000 0.000000
vt 0.375000 0.000000
vt 0.125000 0.750000
vt 0.125000 0.750000
vt 0.125000 0.750000
vt 0.750000 0.750000
vt 0.875000 0.750000
vt 0.875000 0.750000
vt 0.750000 0.750000
vt 0.750000 0.625000
vt 0.875000 0.625000
vt 0.875000 0.750000
vt 0.750000 0.750000
vt 0.875000 0.750000
vt 0.875000 0.750000
vt 0.875000 0.750000
vt 0.875000 0.750000
vt 0.875000 0.750000
vt 0.875000 0.750000
vt 0.875000 0.750000
vt 0.875000 0.750000
vt 0.875000 0.750000
vt 0.875000 0.750000
vt 0.875000 0.750000
vt 0.875000 0.750000
vt 0.875000 0.750000
vt 0.875000 0.750000
vt 0.875000 0.750000
vt 0.875000 0.750000
vt 0.875000 0.750000
vt 0.875000 0.750000
vt 0.875000 0.750000
vt 0.875000 0.750000
vt 0.875000 0.750000
vt 0.875000 0.750000
vt 0.875000 0.750000
vt 0.875000 0.750000
vt 0.875000 0.750000
vt 0.875000 0.750000
vt 0.875000 0.750000
vt 0.875000 0.750000
vt 0.875000 0.750000
vt 0.875000 0.750000
vt 0.875000 0.750000
vt 0.875000 0.750000
vt 0.875000 0.750000
vt 0.875000 0.750000
vt 0.875000 0.750000
vt 0.875000 0.750000
vt 0.875000 0.750000
vt 0.875000 0.750000
vt 0.875000 0.750000
vt 0.875000 0.750000
vt 0.875000 0.750000
vt 0.875000 0.750000
vt 0.875000 0.750000
vt 0.875000 0.750000
vt 0.875000 0.750000
vt 0.750000 0.500000
vt 0.875000 0.500000
vn -0.8736 0.0324 -0.4855
vn 0.3380 0.1164 -0.9339
vn 0.9442 -0.2429 -0.2223
vn 0.3243 -0.9297 -0.1746
vn 0.1865 0.4659 0.8649
vn 0.7329 -0.1010 0.6728
vn 0.0000 -1.0000 0.0000
vn -0.1336 -0.0568 -0.9894
vn 0.2478 0.2972 0.9221
vn -0.1817 -0.9635 0.1967
vn -0.8428 -0.5181 -0.1458
vn -0.3447 -0.3687 -0.8633
vn -0.4269 -0.7996 -0.4223
vn 0.0769 0.2974 0.9517
vn 0.4619 0.3825 0.8002
vn 0.7793 0.2008 0.5936
vn 0.0279 -0.8612 0.5074
vn -0.5629 -0.2972 -0.7712
vn 0.3113 -0.9137 0.2612
vn 0.1429 -0.4079 -0.9018
vn -0.0270 0.5438 0.8387
vn -0.8580 -0.3007 0.4164
vn -0.7790 0.4623 0.4236
vn 0.5200 0.0284 0.8537
vn -0.1120 -0.9935 -0.0188
vn 0.6740 -0.1629 -0.7205
vn 0.9010 -0.0973 -0.4228
vn 0.9398 -0.2044 -0.2737
vn -0.1802 -0.9443 -0.2752
vn 0.4002 -0.9110 0.1001
vn 0.1208 -0.4139 -0.9023
vn 0.7561 0.2824 0.5904
vn -0.4232 0.0489 -0.9047
vn -0.6763 -0.1646 -0.7180
vn -0.2239 -0.9694 0.1006
vn 0.0423 -0.2219 -0.9741
vn 0.1888 -0.9502 0.2478
vn 0.3885 0.2146 0.8961
vn -0.2504 -0.8841 -0.3945
vn -0.1666 0.3096 -0.9362
vn -0.1041 -0.9852 0.1364
vn -0.1074 -0.9913 -0.0760
vn -0.8138 -0.5157 -0.2680
vn -0.2331 -0.9648 -0.1215
vn 0.2082 -0.9170 0.3402
vn 0.9367 -0.1850 0.2974
vn -0.0822 -0.9798 0.1821
vn -0.7430 -0.4439 0.5009
vn 0.0549 -0.9594 -0.2768
vn 0.1232 -0.8668 -0.4833
vn 0.8257 0.3259 0.4604
vn 0.2491 -0.7723 0.5843
vn -0.0263 -0.9791 -0.2016
vn 0.3187 -0.9472 -0.0366
vn -0.1234 -0.9819 0.1439
vn 0.9809 -0.1067 0.1624
vn 0.3499 -0.7696 0.5342
vn -0.3649 -0.8794 -0.3059
vn 0.4466 -0.7274 -0.5209
vn 0.4114 -0.0447 -0.9104
vn 0.0683 -0.9860 -0.1521
vn -0.5597 -0.8005 0.2142
vn -0.4605 0.5065 0.7290
vn -0.5086 -0.7722 0.3809
vn 0.0771 -0.9959 -0.0483
vn 0.3474 0.1833 0.9196
vn 0.0511 -0.9981 0.0350
vn 0.5642 -0.7512 -0.3426
vn -0.2720 -0.1987 -0.9416
vn -0.2567 0.1888 -0.9479
vn 0.3474 -0.1831 0.9197
vn -0.4607 -0.5060 0.7292
vn 0.4114 0.0448 -0.9104
vn 0.9809 0.1068 0.1624
vn -0.6480 0.4209 -0.6348
vn 0.8258 -0.3256 0.4605
vn -0.3015 0.2435 0.9219
vn 0.9367 0.1848 0.2974
vn -0.8135 0.5161 -0.2679
vn -0.2514 -0.3969 -0.8828
vn 0.3886 -0.2143 0.8961
vn 0.0390 0.2265 -0.9732
vn -0.4226 -0.0524 -0.9048
vn 0.5375 -0.8255 0.1720
vn -0.0896 0.4172 -0.9044
vn 0.9398 0.2047 -0.2737
vn 0.9009 0.0974 -0.4228
vn 0.6740 0.1631 -0.7205
vn 0.5730 -0.4917 0.6557
vn -0.7792 -0.4619 0.4237
vn -0.8579 0.3010 0.4163
vn -0.0270 -0.5434 0.8390
vn 0.1428 0.4083 -0.9016
vn -0.5628 0.2975 -0.7712
vn 0.7794 -0.2005 0.5936
vn 0.4620 -0.3821 0.8004
vn 0.0769 -0.2970 0.9518
vn -0.3447 0.3691 -0.8631
vn -0.8425 0.5186 -0.1458
vn 0.2478 -0.2969 0.9222
vn -0.1336 0.0506 -0.9897
vn 0.7329 0.1008 0.6728
vn 0.1866 -0.4655 0.8652
vn 0.9443 0.2426 -0.2223
vn 0.6180 -0.0960 -0.7803
vn -0.7567 -0.2189 -0.6161
vn -0.7731 -0.0989 -0.6265
vn -0.1577 -0.9242 -0.3478
vn 0.2084 -0.9578 -0.1978
vn 0.9079 -0.0907 -0.4092
vn -0.7759 0.0903 -0.6243
vn -0.6874 0.1087 0.7181
vn -0.9525 0.2113 0.2192
vn -0.9026 0.2724 0.3332
vn -0.6172 0.1213 0.7774
vn 0.0201 0.2800 0.9598
vn -0.0994 -0.9946 0.0306
vn -0.0900 -0.7223 0.6857
vn -0.0884 -0.9922 0.0882
vn 0.0000 1.0000 0.0000
vn -0.0033 1.0000 -0.0030
vn -0.2068 0.9765 -0.0610
vn 0.0935 0.9929 -0.0734
vn -0.2289 0.9734 -0.0123
vn -0.0022 1.0000 0.0005
vn 0.1241 0.9919 -0.0256
vn -0.1937 0.8298 0.5234
vn 0.1228 0.8233 0.5541
usemtl Material.002
s off
f 153/1/1 147/2/1 4/3/1 110/4/1
f 135/5/2 54/6/2 8/7/2 111/8/2
f 152/9/3 149/10/3 6/11/3 112/12/3
f 151/13/4 148/14/4 5/15/4 55/16/4
f 134/17/5 58/18/5 10/19/5 113/20/5
f 137/21/6 60/22/6 11/23/6 114/24/6
f 67/25/7 61/26/7 12/27/7 57/28/7
f 109/29/8 1/30/8 13/31/8 115/32/8
f 113/20/9 10/19/9 16/33/9 116/34/9
f 62/35/10 9/36/10 15/37/10 64/38/10
f 136/39/11 66/40/11 19/41/11 118/42/11
f 145/43/12 101/44/12 17/45/12 117/46/12
f 105/47/13 102/48/13 19/49/13 66/50/13
f 108/51/7 69/52/7 21/53/7 104/54/7
f 144/55/14 103/56/14 24/57/14 120/58/14
f 120/58/15 24/57/15 28/59/15 122/60/15
f 139/61/16 72/62/16 22/63/16 119/64/16
f 73/65/17 27/66/17 31/67/17 75/68/17
f 118/42/18 19/41/18 25/69/18 121/70/18
f 70/71/19 23/72/19 27/66/19 73/65/19
f 121/70/20 25/69/20 29/73/20 123/74/20
f 122/60/21 28/59/21 32/75/21 124/76/21
f 138/77/22 77/78/22 35/79/22 126/80/22
f 143/81/23 88/82/23 36/83/23 126/84/23
f 95/85/7 89/86/7 35/87/7 77/88/7
f 125/89/24 34/90/24 40/91/24 128/92/24
f 90/93/25 33/94/25 39/95/25 92/96/25
f 123/74/26 29/73/26 37/97/26 127/98/26
f 142/99/27 94/100/27 43/101/27 130/102/27
f 141/103/28 81/104/28 41/105/28 129/106/28
f 97/107/29 82/108/29 43/109/29 94/110/29
f 82/108/30 39/95/30 45/111/30 84/112/30
f 130/102/31 43/101/31 47/113/31 132/114/31
f 128/92/32 40/91/32 46/115/32 131/116/32
f 140/117/33 85/118/33 52/119/33 133/120/33
f 140/117/34 86/121/34 161/122/34 162/123/34
f 84/112/35 45/111/35 49/124/35 86/125/35
f 132/114/36 47/113/36 51/126/36 133/120/36
f 62/35/37 67/25/37 57/28/37 9/36/37
f 114/24/38 11/23/38 58/18/38 134/17/38
f 146/127/39 151/13/39 55/16/39 1/128/39
f 110/4/40 4/3/40 54/6/40 135/5/40
f 1/128/41 55/16/41 67/25/41 62/35/41
f 101/129/42 105/47/42 66/50/42 17/130/42
f 117/46/43 17/45/43 66/40/43 136/39/43
f 1/128/44 62/35/44 64/38/44 13/131/44
f 55/16/45 5/15/45 61/26/45 67/25/45
f 112/12/46 6/11/46 60/22/46 137/21/46
f 90/93/47 95/85/47 77/88/47 33/94/47
f 125/89/48 33/132/48 77/78/48 138/77/48
f 19/49/49 70/71/49 73/65/49 25/133/49
f 25/133/50 73/65/50 75/68/50 29/134/50
f 116/34/51 16/33/51 72/62/51 139/61/51
f 102/48/52 15/37/52 69/52/52 108/51/52
f 47/135/53 84/112/53 86/125/53 51/136/53
f 43/109/54 82/108/54 84/112/54 47/135/54
f 92/96/55 39/95/55 82/108/55 97/107/55
f 127/98/56 37/97/56 81/104/56 141/103/56
f 37/137/57 92/96/57 97/107/57 81/138/57
f 29/134/58 75/68/58 95/85/58 90/93/58
f 81/138/59 97/107/59 94/110/59 41/139/59
f 129/106/60 41/105/60 94/100/60 142/99/60
f 29/134/61 90/93/61 92/96/61 37/137/61
f 75/68/62 31/67/62 89/86/62 95/85/62
f 124/76/63 32/75/63 88/82/63 143/81/63
f 19/49/64 102/48/64 108/51/64 70/71/64
f 13/131/65 64/38/65 105/47/65 101/129/65
f 119/64/66 22/63/66 103/56/66 144/55/66
f 70/71/67 108/51/67 104/54/67 23/72/67
f 64/38/68 15/37/68 102/48/68 105/47/68
f 115/32/69 13/31/69 101/44/69 145/43/69
f 14/140/70 115/32/70 145/43/70 99/141/70
f 21/142/71 119/64/71 144/55/71 104/143/71
f 31/144/72 124/76/72 143/81/72 89/145/72
f 42/146/73 129/106/73 142/99/73 93/147/73
f 38/148/74 127/98/74 141/103/74 79/149/74
f 85/118/75 140/117/75 162/123/75 158/150/75
f 15/151/76 116/34/76 139/61/76 69/152/76
f 34/90/77 125/89/77 138/77/77 78/153/77
f 5/15/78 112/12/78 137/21/78 61/26/78
f 18/154/79 117/46/79 136/39/79 65/155/79
f 3/156/80 110/4/80 135/5/80 53/157/80
f 12/27/81 114/24/81 134/17/81 57/158/81
f 48/159/82 132/114/82 133/120/82 52/119/82
f 86/121/83 140/117/83 133/120/83 51/126/83
f 39/160/84 128/92/84 131/116/84 45/161/84
f 44/162/85 130/102/85 132/114/85 48/159/85
f 79/149/86 141/103/86 129/106/86 42/146/86
f 93/147/87 142/99/87 130/102/87 44/162/87
f 30/163/88 123/74/88 127/98/88 38/148/88
f 33/132/89 125/89/89 128/92/89 39/160/89
f 89/145/90 143/81/90 126/84/90 35/164/90
f 78/153/91 138/77/91 126/80/91 36/165/91
f 27/166/92 122/60/92 124/76/92 31/144/92
f 26/167/93 121/70/93 123/74/93 30/163/93
f 20/168/94 118/42/94 121/70/94 26/167/94
f 69/152/95 139/61/95 119/64/95 21/142/95
f 23/169/96 120/58/96 122/60/96 27/166/96
f 104/143/97 144/55/97 120/58/97 23/169/97
f 99/141/98 145/43/98 117/46/98 18/154/98
f 65/155/99 136/39/99 118/42/99 20/168/99
f 9/170/100 113/20/100 116/34/100 15/151/100
f 2/171/101 109/29/101 115/32/101 14/140/101
f 61/26/102 137/21/102 114/24/102 12/27/102
f 57/158/103 134/17/103 113/20/103 9/170/103
f 148/14/104 152/9/104 112/12/104 5/15/104
f 53/157/105 135/5/105 111/8/105 7/172/105
f 146/173/106 153/1/106 110/4/106 3/156/106
f 1/30/107 109/29/107 153/1/107 146/173/107
f 7/172/104 111/8/104 152/9/104 148/14/104
f 3/174/108 53/175/108 151/13/108 146/127/108
f 53/175/109 7/172/109 148/14/109 151/13/109
f 111/8/110 8/7/110 149/10/110 152/9/110
f 109/29/111 2/171/111 147/2/111 153/1/111
f 154/176/112 155/177/112 157/178/112 156/179/112
f 156/179/113 157/178/113 158/150/113 162/123/113
f 159/180/114 156/179/114 162/123/114 161/122/114
f 160/181/115 154/176/115 156/179/115 159/180/115
f 131/116/116 46/115/116 155/177/116 154/176/116
f 86/125/117 49/124/117 159/182/117 161/183/117
f 45/161/118 131/116/118 154/176/118 160/181/118
f 49/124/119 45/111/119 160/184/119 159/182/119
usemtl Material.006
f 68/185/120 59/186/120 10/187/120 58/188/120
f 150/189/120 147/190/120 2/191/120 56/192/120
f 59/186/120 2/191/120 14/193/120 63/194/120
f 106/195/120 99/196/120 18/197/120 65/198/120
f 107/199/120 71/200/120 24/201/120 103/202/120
f 71/200/120 20/203/120 26/204/120 74/205/120
f 96/206/120 87/207/120 34/208/120 78/209/120
f 74/205/120 26/204/120 30/210/120 76/211/120
f 87/207/120 30/210/120 38/212/120 91/213/120
f 98/214/120 79/215/120 42/216/120 93/217/120
f 83/218/121 48/219/121 52/220/121 85/221/121
f 80/222/122 44/223/122 48/219/122 83/218/122
f 149/10/120 150/189/120 56/192/120 6/11/120
f 60/22/120 68/185/120 58/188/120 11/23/120
f 6/11/120 56/192/120 68/185/120 60/22/120
f 100/224/120 106/195/120 65/198/120 20/203/120
f 10/187/120 59/186/120 63/194/120 16/225/120
f 56/192/120 2/191/120 59/186/120 68/185/120
f 28/226/120 74/205/120 76/211/120 32/227/120
f 88/228/120 96/206/120 78/209/120 36/229/120
f 24/201/120 71/200/120 74/205/120 28/226/120
f 100/224/120 20/203/120 71/200/120 107/199/120
f 46/230/123 50/231/123 157/232/123 155/233/123
f 40/234/124 80/222/124 83/218/124 46/230/124
f 46/230/125 83/218/125 85/221/125 50/231/125
f 91/213/120 38/212/120 79/215/120 98/214/120
f 40/234/120 91/213/120 98/214/120 80/222/120
f 32/227/120 76/211/120 96/206/120 88/228/120
f 80/222/120 98/214/120 93/217/120 44/223/120
f 34/208/120 87/207/120 91/213/120 40/234/120
f 76/211/120 30/210/120 87/207/120 96/206/120
f 16/225/120 100/224/120 107/199/120 72/235/120
f 16/225/120 63/194/120 106/195/120 100/224/120
f 72/235/120 107/199/120 103/202/120 22/236/120
f 63/194/120 14/193/120 99/196/120 106/195/120
f 50/231/126 85/221/126 158/237/126 157/232/126
f 8/7/127 54/238/127 150/189/127 149/10/127
f 54/238/128 4/239/128 147/190/128 150/189/128
