# Blender v2.93.4 OBJ File: ''
# www.blender.org
mtllib road2.mtl
o Cube.001
v -5.915603 -0.251978 -0.744246
v -5.915603 0.317579 -0.744246
v -5.915603 -0.251978 -1.385630
v -5.915603 0.317579 -1.385630
v -4.619102 -0.251978 -0.744246
v -4.619102 0.317579 -0.744246
v -4.619102 -0.251978 -1.385630
v -4.619102 0.317579 -1.385630
v -6.399792 -0.251978 -1.385630
v -6.399792 -0.251978 -0.744246
v -6.399792 0.317579 -0.744246
v -6.399792 0.317579 -1.385630
v -5.915603 0.748010 -0.744246
v -5.915603 0.748010 -1.385630
v -6.399792 0.748010 -0.744246
v -6.399792 0.748010 -1.385630
v -6.894041 0.317579 -0.744246
v -6.894041 0.317579 -1.385630
v -6.894041 0.748010 -0.744246
v -6.894041 0.748010 -1.385630
v -7.180441 0.462308 -0.744246
v -7.180441 0.462308 -1.385630
v -7.180441 0.892739 -0.744246
v -7.180441 0.892739 -1.385630
v -7.621011 0.462308 -0.744246
v -7.621011 0.462308 -1.385630
v -7.621011 0.892739 -0.744246
v -7.621011 0.892739 -1.385630
v -8.090520 0.705984 -0.662393
v -8.090520 0.705984 -1.303777
v -8.090520 1.136415 -0.662393
v -8.090520 1.136415 -1.303777
v -8.645075 0.705984 -0.662393
v -8.645075 0.705984 -1.303777
v -8.645075 1.136415 -0.662393
v -8.645075 1.136415 -1.303777
v -9.079819 0.705984 -0.662393
v -9.079819 0.705984 -1.303777
v -9.079819 1.136415 -0.662393
v -9.079819 1.136415 -1.303777
v -8.760286 1.411175 -0.662393
v -8.760286 1.411175 -1.303777
v -9.098980 1.411175 -0.662393
v -9.098980 1.411175 -1.303777
v -9.625233 1.110239 -0.662393
v -9.625233 1.110239 -1.303777
v -9.644394 1.385000 -0.662393
v -9.644394 1.385000 -1.303777
v -9.281358 1.638555 -0.662393
v -9.281358 1.638555 -1.303777
v -9.656704 1.612379 -0.662393
v -9.656704 1.612379 -1.303777
v -9.909170 1.092653 -0.662393
v -9.909170 1.092653 -1.303777
v -9.928331 1.367413 -0.662393
v -9.928331 1.367413 -1.303777
v -9.940643 1.594793 -0.662393
v -9.940643 1.594793 -1.303777
v -10.290715 1.069021 -0.662393
v -10.290715 1.069021 -1.303777
v -10.309876 1.343782 -0.662393
v -10.309876 1.343782 -1.303777
v -10.322187 1.571161 -0.662393
v -10.322187 1.571161 -1.303777
v -9.967514 2.028638 -0.662393
v -9.967514 2.028638 -1.303777
v -10.349058 2.005006 -0.662393
v -10.349058 2.005006 -1.303777
v -10.635078 1.551782 -0.662393
v -10.635078 1.551782 -1.303777
v -10.661949 1.985627 -0.662393
v -10.661949 1.985627 -1.303777
v -11.071762 1.524735 -0.662393
v -11.071762 1.524735 -1.303777
v -11.098633 1.958580 -0.662393
v -11.098633 1.958580 -1.303777
v -11.341070 1.576454 -0.662393
v -11.341070 1.576454 -1.303777
v -11.367941 1.941901 -0.662393
v -11.367941 1.941901 -1.303777
v -11.054121 1.239903 -0.662393
v -11.054121 1.239903 -1.303777
v -11.323428 1.223223 -0.662393
v -11.323428 1.223223 -1.303777
v -11.889915 1.542460 -0.662393
v -11.889915 1.542460 -1.303777
v -11.762480 1.189229 -0.662393
v -11.762480 1.189229 -1.303777
v -12.095501 1.461329 -0.662393
v -12.095501 1.461329 -1.303777
v -12.077859 1.176496 -0.662393
v -12.077859 1.176496 -1.303777
v -11.743418 0.881466 -0.662393
v -11.743418 0.881466 -1.303777
v -12.058797 0.960624 -0.662393
v -12.058797 0.960624 -1.303777
v -11.726646 0.610669 -0.662393
v -11.726646 0.610669 -1.303777
v -12.042025 0.597935 -0.662393
v -12.042025 0.597935 -1.303777
v -12.457565 0.935926 -0.662393
v -12.457565 0.935926 -1.303777
v -12.440792 0.573237 -0.662393
v -12.440792 0.573237 -1.303777
vt 0.625000 0.250000
vt 0.375000 0.250000
vt 0.375000 0.250000
vt 0.625000 0.250000
vt 0.625000 0.500000
vt 0.375000 0.500000
vt 0.625000 0.750000
vt 0.375000 0.750000
vt 0.625000 1.000000
vt 0.375000 1.000000
vt 0.125000 0.500000
vt 0.125000 0.750000
vt 0.875000 0.500000
vt 0.875000 0.750000
vt 0.375000 0.000000
vt 0.625000 0.000000
vt 0.625000 1.000000
vt 0.375000 1.000000
vt 0.625000 0.000000
vt 0.625000 0.250000
vt 0.125000 0.750000
vt 0.125000 0.500000
vt 0.875000 0.750000
vt 0.875000 0.500000
vt 0.875000 0.500000
vt 0.875000 0.750000
vt 0.625000 0.250000
vt 0.625000 0.250000
vt 0.625000 1.000000
vt 0.625000 1.000000
vt 0.625000 1.000000
vt 0.625000 1.000000
vt 0.625000 1.000000
vt 0.625000 1.000000
vt 0.625000 0.250000
vt 0.875000 0.500000
vt 0.875000 0.750000
vt 0.625000 0.250000
vt 0.625000 0.000000
vt 0.625000 0.000000
vt 0.625000 0.250000
vt 0.625000 0.250000
vt 0.875000 0.500000
vt 0.875000 0.750000
vt 0.625000 0.250000
vt 0.625000 0.250000
vt 0.625000 0.250000
vt 0.875000 0.500000
vt 0.875000 0.750000
vt 0.625000 1.000000
vt 0.625000 1.000000
vt 0.625000 1.000000
vt 0.625000 1.000000
vt 0.625000 1.000000
vt 0.625000 1.000000
vt 0.875000 0.500000
vt 0.875000 0.750000
vt 0.625000 0.000000
vt 0.625000 0.250000
vt 0.625000 0.250000
vt 0.625000 0.250000
vt 0.625000 0.250000
vt 0.625000 0.000000
vt 0.875000 0.500000
vt 0.875000 0.750000
vt 0.625000 0.000000
vt 0.625000 0.000000
vt 0.625000 0.000000
vt 0.625000 0.250000
vt 0.625000 1.000000
vt 0.625000 1.000000
vt 0.875000 0.750000
vt 0.875000 0.500000
vt 0.875000 0.500000
vt 0.875000 0.750000
vt 0.625000 1.000000
vt 0.625000 1.000000
vt 0.625000 0.250000
vt 0.625000 0.250000
vt 0.625000 0.250000
vt 0.625000 0.250000
vt 0.625000 0.250000
vt 0.625000 1.000000
vt 0.625000 1.000000
vt 0.625000 0.250000
vt 0.625000 0.250000
vt 0.875000 0.750000
vt 0.875000 0.500000
vt 0.875000 0.500000
vt 0.875000 0.750000
vt 0.625000 1.000000
vt 0.625000 1.000000
vt 0.625000 1.000000
vt 0.625000 1.000000
vt 0.625000 0.250000
vt 0.625000 0.250000
vt 0.625000 0.250000
vt 0.625000 0.000000
vt 0.625000 0.000000
vt 0.625000 0.250000
vt 0.625000 1.000000
vt 0.875000 0.500000
vt 0.875000 0.750000
vt 0.625000 0.000000
vt 0.625000 0.000000
vt 0.625000 1.000000
vt 0.625000 1.000000
vt 0.625000 1.000000
vt 0.625000 1.000000
vt 0.625000 1.000000
vt 0.875000 0.750000
vt 0.875000 0.500000
vt 0.875000 0.500000
vt 0.875000 0.750000
vt 0.625000 1.000000
vt 0.625000 1.000000
vt 0.625000 0.250000
vt 0.625000 0.250000
vt 0.875000 0.750000
vt 0.875000 0.500000
vt 0.875000 0.500000
vt 0.875000 0.750000
vt 0.625000 0.000000
vt 0.625000 0.250000
vt 0.625000 0.250000
vt 0.625000 1.000000
vt 0.625000 1.000000
vt 0.625000 1.000000
vt 0.625000 1.000000
vt 0.625000 0.000000
vt 0.625000 0.250000
vt 0.625000 0.250000
vt 0.625000 0.250000
vt 0.625000 0.000000
vt 0.625000 0.000000
vt 0.625000 0.250000
vt 0.625000 1.000000
vt 0.625000 1.000000
vt 0.875000 0.500000
vt 0.875000 0.750000
vt 0.625000 0.250000
vt 0.625000 0.000000
vt 0.625000 0.000000
vt 0.625000 0.250000
vt 0.625000 1.000000
vt 0.625000 1.000000
vt 0.625000 0.250000
vt 0.625000 0.250000
vt 0.625000 0.250000
vt 0.625000 0.250000
vt 0.625000 0.000000
vt 0.625000 0.000000
vt 0.625000 0.000000
vt 0.625000 0.000000
vt 0.625000 0.250000
vt 0.625000 0.000000
vt 0.625000 1.000000
vt 0.625000 1.000000
vt 0.625000 0.250000
vt 0.625000 0.250000
vt 0.625000 0.250000
vt 0.625000 1.000000
vt 0.625000 1.000000
vt 0.625000 0.000000
vt 0.625000 0.000000
vt 0.625000 0.000000
vt 0.625000 1.000000
vt 0.625000 1.000000
vt 0.625000 1.000000
vt 0.625000 1.000000
vt 0.625000 0.000000
vt 0.625000 0.250000
vt 0.625000 0.250000
vt 0.625000 0.000000
vn 0.0000 0.0000 -1.0000
vn 1.0000 0.0000 0.0000
vn 0.0000 0.0000 1.0000
vn 0.0000 -1.0000 0.0000
vn 0.0000 1.0000 0.0000
vn -1.0000 0.0000 0.0000
vn -0.4510 -0.8925 0.0000
vn 0.4510 0.8925 0.0000
vn -0.1717 0.0000 -0.9851
vn 0.4607 0.8876 0.0000
vn 0.1717 0.0000 0.9851
vn -0.4607 -0.8876 0.0000
vn 0.0479 -0.9989 0.0000
vn 0.9222 0.3867 0.0000
vn -0.0696 0.9976 0.0000
vn 0.7801 0.6257 0.0000
vn 0.0618 -0.9981 0.0000
vn -0.0618 0.9981 0.0000
vn -0.9976 -0.0696 0.0000
vn -0.9985 -0.0541 0.0000
vn 0.9981 0.0618 0.0000
vn -0.9973 -0.0733 0.0000
vn 0.0772 -0.9970 0.0000
vn -0.9981 -0.0618 0.0000
vn -0.9961 -0.0880 0.0000
vn -0.3671 0.9302 0.0000
vn 0.0403 -0.9992 0.0000
vn -0.9989 -0.0462 0.0000
usemtl None
s off
f 4/1/1 3/2/1 9/3/1 12/4/1
f 3/2/1 4/1/1 8/5/1 7/6/1
f 7/6/2 8/5/2 6/7/2 5/8/2
f 5/8/3 6/7/3 2/9/3 1/10/3
f 3/11/4 7/6/4 5/8/4 1/12/4
f 8/5/5 4/13/5 2/14/5 6/7/5
f 10/15/6 11/16/6 12/4/6 9/3/6
f 1/10/3 2/9/3 11/17/3 10/18/3
f 12/4/4 11/16/4 17/19/4 18/20/4
f 3/11/4 1/12/4 10/21/4 9/22/4
f 13/23/5 14/24/5 16/25/5 15/26/5
f 4/1/1 12/4/1 16/27/1 14/28/1
f 2/14/2 4/13/2 14/24/2 13/23/2
f 11/17/3 2/9/3 13/29/3 15/30/3
f 17/31/3 19/32/3 23/33/3 21/34/3
f 16/27/1 12/4/1 18/20/1 20/35/1
f 15/26/5 16/25/5 20/36/5 19/37/5
f 11/17/3 15/30/3 19/32/3 17/31/3
f 22/38/4 21/39/4 25/40/4 26/41/4
f 18/20/7 17/19/7 21/39/7 22/38/7
f 20/35/1 18/20/1 22/38/1 24/42/1
f 19/37/8 20/36/8 24/43/8 23/44/8
f 28/45/9 26/41/9 30/46/9 32/47/9
f 24/42/1 22/38/1 26/41/1 28/45/1
f 23/44/5 24/43/5 28/48/5 27/49/5
f 21/34/3 23/33/3 27/50/3 25/51/3
f 29/52/3 31/53/3 35/54/3 33/55/3
f 27/49/10 28/48/10 32/56/10 31/57/10
f 25/51/11 27/50/11 31/53/11 29/52/11
f 26/41/12 25/40/12 29/58/12 30/46/12
f 36/59/1 34/60/1 38/61/1 40/62/1
f 30/46/4 29/58/4 33/63/4 34/60/4
f 32/47/1 30/46/1 34/60/1 36/59/1
f 31/57/5 32/56/5 36/64/5 35/65/5
f 38/61/6 37/66/6 39/67/6 40/62/6
f 40/62/13 39/67/13 45/68/13 46/69/13
f 33/55/3 35/54/3 39/70/3 37/71/3
f 34/60/4 33/63/4 37/66/4 38/61/4
f 41/72/5 42/73/5 44/74/5 43/75/5
f 39/70/3 35/54/3 41/76/3 43/77/3
f 35/65/14 36/64/14 42/73/14 41/72/14
f 36/59/1 40/62/1 44/78/1 42/79/1
f 48/80/1 46/69/1 54/81/1 56/82/1
f 39/70/3 43/77/3 47/83/3 45/84/3
f 44/78/1 40/62/1 46/69/1 48/80/1
f 44/78/1 48/80/1 52/85/1 50/86/1
f 49/87/15 50/88/15 52/89/15 51/90/15
f 47/83/3 51/91/3 57/92/3 55/93/3
f 47/83/3 43/77/3 49/94/3 51/91/3
f 43/75/16 44/74/16 50/88/16 49/87/16
f 58/95/1 56/82/1 62/96/1 64/97/1
f 54/81/17 53/98/17 59/99/17 60/100/17
f 52/85/1 48/80/1 56/82/1 58/95/1
f 45/84/3 47/83/3 55/93/3 53/101/3
f 46/69/17 45/68/17 53/98/17 54/81/17
f 51/90/18 52/89/18 58/102/18 57/103/18
f 60/100/19 59/99/19 61/104/19 62/96/19
f 62/96/20 61/104/20 63/105/20 64/97/20
f 56/82/1 54/81/1 60/100/1 62/96/1
f 55/93/3 57/92/3 63/106/3 61/107/3
f 63/106/3 57/92/3 65/108/3 67/109/3
f 53/101/3 55/93/3 61/107/3 59/110/3
f 65/111/18 66/112/18 68/113/18 67/114/18
f 63/106/3 67/109/3 71/115/3 69/116/3
f 58/95/1 64/97/1 68/117/1 66/118/1
f 57/103/21 58/102/21 66/112/21 65/111/21
f 71/119/18 72/120/18 76/121/18 75/122/18
f 64/97/17 63/105/17 69/123/17 70/124/17
f 67/114/18 68/113/18 72/120/18 71/119/18
f 68/117/1 64/97/1 70/124/1 72/125/1
f 73/126/3 75/127/3 79/128/3 77/129/3
f 69/116/3 71/115/3 75/127/3 73/126/3
f 70/124/17 69/123/17 73/130/17 74/131/17
f 72/125/1 70/124/1 74/131/1 76/132/1
f 78/133/22 77/134/22 79/135/22 80/136/22
f 73/126/3 77/129/3 83/137/3 81/138/3
f 76/132/1 74/131/1 78/133/1 80/136/1
f 75/122/18 76/121/18 80/139/18 79/140/18
f 82/141/17 81/142/17 83/143/17 84/144/17
f 74/131/21 73/130/21 81/142/21 82/141/21
f 78/133/1 74/131/1 82/141/1 84/144/1
f 83/137/3 77/129/3 85/145/3 87/146/3
f 86/147/1 88/148/1 92/149/1 90/150/1
f 78/133/1 84/144/1 88/148/1 86/147/1
f 77/134/18 78/133/18 86/147/18 85/151/18
f 84/144/23 83/143/23 87/152/23 88/148/23
f 89/153/24 90/150/24 92/149/24 91/154/24
f 91/154/25 92/149/25 96/155/25 95/156/25
f 87/146/3 85/145/3 89/157/3 91/158/3
f 85/151/26 86/147/26 90/150/26 89/153/26
f 96/155/1 94/159/1 98/160/1 100/161/1
f 87/146/3 91/158/3 95/162/3 93/163/3
f 88/148/21 87/152/21 93/164/21 94/159/21
f 92/149/1 88/148/1 94/159/1 96/155/1
f 98/160/27 97/165/27 99/166/27 100/161/27
f 94/159/21 93/164/21 97/165/21 98/160/21
f 93/163/3 95/162/3 99/167/3 97/168/3
f 99/167/3 95/162/3 101/169/3 103/170/3
f 101/171/28 102/172/28 104/173/28 103/174/28
f 96/155/1 100/161/1 104/173/1 102/172/1
f 100/161/17 99/166/17 103/174/17 104/173/17
f 95/156/18 96/155/18 102/172/18 101/171/18
