# Blender v2.93.4 OBJ File: 'ROADS.blend'
# www.blender.org
mtllib road1.mtl
o Cube
v 0.712042 0.305435 -0.461121
v 0.712042 -0.207491 -0.461121
v 0.708717 0.305435 0.535240
v 0.708717 -0.200666 0.535240
v -0.587268 0.305435 -0.354109
v -0.587268 -0.184518 -0.354109
v -0.585008 0.305435 0.532079
v -0.585008 -0.280720 0.532079
v -0.669723 -0.201960 0.037430
v 0.877509 0.305435 0.033918
v -0.669723 0.305435 0.037430
v 0.877509 -0.149719 0.033918
v -0.746166 -0.218285 0.307702
v 0.807121 0.305435 0.296586
v -0.746166 0.305435 0.307702
v 0.807121 -0.136166 0.296586
v -0.736186 0.305435 -0.236110
v 0.827048 -0.209186 -0.226095
v -0.736186 -0.183430 -0.236110
v 0.827048 0.305435 -0.226095
v -2.230622 -0.280720 -0.283854
v -2.213583 -0.358236 0.037430
v -2.150875 0.305435 0.299598
v -2.213583 0.305435 0.037430
v -2.150875 -0.280720 0.299598
v -2.230622 0.305435 -0.283854
v -2.423058 -0.206225 -0.131305
v -2.539462 -0.217628 0.017785
v -2.489779 0.305435 0.283325
v -2.539462 0.305435 0.017785
v -2.489779 -0.280720 0.283325
v -2.423058 0.305435 -0.131305
v -2.288712 0.307918 0.499888
v -2.276728 -0.278058 0.491712
v -2.489341 0.302774 0.574480
v -2.477358 -0.128612 0.566304
v -3.002326 0.305435 0.283325
v -3.016533 0.305435 -0.027794
v -3.016533 -0.280720 -0.027794
v -3.002326 -0.390585 0.283325
v -2.927033 0.305435 0.569269
v -2.927033 -0.280720 0.569269
v -3.352690 0.305435 0.272311
v -3.265079 0.305435 0.113668
v -3.265079 -0.193416 0.113668
v -3.352690 -0.202611 0.272311
v -3.315988 0.305435 0.541233
v -3.315988 -0.280720 0.541233
v -3.077620 0.305435 0.743442
v -3.077620 -0.280720 0.743442
v -3.315988 0.305435 0.771478
v -3.315988 -0.220808 0.771478
v -3.750457 0.305435 0.283325
v -3.750457 -0.202778 0.283325
v -3.750457 0.305435 0.541233
v -3.750457 -0.429913 0.541233
v -3.750457 0.305435 0.771478
v -3.750457 -0.280720 0.771478
v -3.986849 0.395091 0.283325
v -3.986849 -0.070328 0.283325
v -3.986849 0.395091 0.541233
v -3.986849 -0.191064 0.541233
v -3.986849 0.395091 0.771478
v -3.986849 -0.191064 0.771478
v -4.205504 0.439830 0.283325
v -4.205504 -0.087006 0.283325
v -4.205504 0.439830 0.541233
v -4.205504 -0.067059 0.541233
v -4.150907 0.439830 0.784364
v -4.150907 -0.077853 0.784364
v -4.352129 0.439830 0.297821
v -4.352129 0.018485 0.297821
v -4.479942 0.439830 0.489651
v -4.479942 -0.087406 0.489651
v -4.411530 0.439830 0.771478
v -4.411530 -0.255197 0.771478
v -4.260101 0.439830 1.002786
v -4.260101 -0.146325 1.002786
v -4.422662 0.439830 1.070453
v -4.422662 -0.107378 1.070453
v -4.683227 0.439830 0.578319
v -4.683227 -0.044041 0.578319
v -4.801982 0.333664 0.781643
v -4.729720 -0.054900 0.781643
v -4.643623 0.439830 0.950727
v -4.643623 -0.050327 0.950727
v 0.038399 -0.280720 -0.525212
v 0.049445 0.305435 0.678048
v 0.049445 -0.132540 0.678048
v 0.038399 0.305435 -0.556743
v 0.103893 -0.393887 0.035674
v 0.103893 0.305435 0.035674
v 0.030478 -0.360828 0.302144
v 0.030478 0.305435 0.302144
v 0.045431 0.305435 -0.231103
v 0.045431 -0.332857 -0.231103
v 0.776316 0.013260 -0.461121
v -0.585008 0.013260 0.602915
v 0.671268 0.013260 0.535240
v -0.587268 0.013260 -0.437813
v 0.941783 0.013260 0.033918
v -0.746166 0.013260 0.401005
v 0.847902 0.013260 0.296586
v 0.891322 0.013260 -0.226095
v -0.736186 0.013260 -0.236110
v -2.150875 0.013260 0.392901
v -2.230622 0.013260 -0.441425
v -2.539462 0.013260 0.017785
v -2.482801 0.013260 -0.217640
v -2.282738 0.015831 0.495813
v -2.483368 0.010687 0.692541
v -3.016533 0.013260 -0.179324
v -2.927033 0.013260 0.691405
v -3.305984 0.013260 0.063315
v -3.352690 0.013260 0.272311
v -3.077620 0.013260 0.743442
v -3.315988 0.013260 0.923553
v -3.816593 0.013260 0.158286
v -3.750457 0.013260 0.923553
v -3.986849 0.102915 0.283325
v -3.986849 0.102915 0.990655
v -4.257021 0.147654 0.137634
v -4.150907 0.147654 1.003542
v -4.407741 0.147654 0.286089
v -4.479942 0.147654 0.489651
v -4.260101 0.147654 1.115345
v -4.422662 0.147654 1.183012
v -4.609972 0.147654 0.578319
v -4.656465 0.147654 0.781643
v -4.570369 0.147654 0.950727
v 0.038399 0.013260 -0.644892
v 0.049445 0.013260 0.748883
vt 0.750000 0.685251
vt 0.875000 0.685251
vt 0.875000 0.750000
vt 0.750000 0.750000
vt 0.500385 0.875000
vt 0.625000 0.875000
vt 0.625000 1.000000
vt 0.500385 1.000000
vt 0.500385 0.187519
vt 0.625000 0.187519
vt 0.625000 0.250000
vt 0.500385 0.250000
vt 0.250000 0.685251
vt 0.375000 0.685251
vt 0.375000 0.750000
vt 0.250000 0.750000
vt 0.500385 0.685251
vt 0.625000 0.685251
vt 0.625000 0.750000
vt 0.500385 0.750000
vt 0.500385 0.375000
vt 0.625000 0.375000
vt 0.625000 0.500000
vt 0.500385 0.500000
vt 0.500385 0.562481
vt 0.625000 0.562481
vt 0.625000 0.624962
vt 0.500385 0.624962
vt 0.250000 0.562481
vt 0.375000 0.562481
vt 0.375000 0.624962
vt 0.250000 0.624962
vt 0.875000 0.624962
vt 0.875000 0.624962
vt 0.875000 0.685251
vt 0.750000 0.562481
vt 0.875000 0.562481
vt 0.750000 0.624962
vt 0.500385 0.000000
vt 0.625000 0.000000
vt 0.625000 0.064749
vt 0.500385 0.064749
vt 0.750000 0.500000
vt 0.875000 0.500000
vt 0.250000 0.500000
vt 0.375000 0.500000
vt 0.125000 0.624962
vt 0.125000 0.685251
vt 0.125000 0.685251
vt 0.125000 0.624962
vt 0.500385 0.064749
vt 0.625000 0.064749
vt 0.625000 0.064749
vt 0.500385 0.064749
vt 0.500385 0.187519
vt 0.375000 0.187519
vt 0.375000 0.187519
vt 0.500385 0.187519
vt 0.125000 0.562481
vt 0.125000 0.562481
vt 0.875000 0.562481
vt 0.375000 0.187519
vt 0.875000 0.685251
vt 0.875000 0.624962
vt 0.875000 0.624962
vt 0.875000 0.685251
vt 0.500385 0.125038
vt 0.625000 0.125038
vt 0.625000 0.187519
vt 0.125000 0.624962
vt 0.125000 0.562481
vt 0.875000 0.562481
vt 0.125000 0.685251
vt 0.625000 0.064749
vt 0.500385 0.064749
vt 0.875000 0.685251
vt 0.875000 0.685251
vt 0.125000 0.685251
vt 0.125000 0.624962
vt 0.125000 0.685251
vt 0.125000 0.685251
vt 0.500385 0.125038
vt 0.375000 0.125038
vt 0.375000 0.125038
vt 0.500385 0.125038
vt 0.875000 0.685251
vt 0.875000 0.685251
vt 0.875000 0.685251
vt 0.125000 0.685251
vt 0.375000 0.125038
vt 0.625000 0.064749
vt 0.500385 0.064749
vt 0.500385 0.064749
vt 0.625000 0.064749
vt 0.625000 0.125038
vt 0.125000 0.685251
vt 0.125000 0.685251
vt 0.125000 0.685251
vt 0.125000 0.685251
vt 0.875000 0.685251
vt 0.875000 0.685251
vt 0.875000 0.685251
vt 0.125000 0.624962
vt 0.875000 0.624962
vt 0.500385 0.064749
vt 0.625000 0.064749
vt 0.625000 0.064749
vt 0.500385 0.064749
vt 0.875000 0.685251
vt 0.125000 0.685251
vt 0.125000 0.685251
vt 0.500385 0.064749
vt 0.625000 0.064749
vt 0.625000 0.064749
vt 0.500385 0.064749
vt 0.875000 0.685251
vt 0.875000 0.685251
vt 0.125000 0.685251
vt 0.875000 0.685251
vt 0.375000 0.064749
vt 0.375000 0.064749
vt 0.500385 0.064749
vt 0.125000 0.685251
vt 0.125000 0.685251
vt 0.125000 0.685251
vt 0.125000 0.685251
vt 0.125000 0.685251
vt 0.125000 0.685251
vt 0.875000 0.685251
vt 0.375000 0.064749
vt 0.500385 0.064749
vt 0.500385 0.064749
vt 0.625000 0.064749
vt 0.625000 0.064749
vt 0.500385 0.064749
vt 0.875000 0.685251
vt 0.875000 0.685251
vt 0.875000 0.685251
vt 0.875000 0.685251
vt 0.875000 0.685251
vt 0.375000 0.064749
vt 0.500385 0.064749
vt 0.500385 0.064749
vt 0.375000 0.064749
vt 0.375000 0.064749
vt 0.500385 0.064749
vt 0.375000 0.064749
vt 0.500385 0.064749
vt 0.875000 0.685251
vt 0.125000 0.685251
vt 0.125000 0.685251
vt 0.125000 0.685251
vt 0.625000 0.064749
vt 0.500385 0.064749
vt 0.125000 0.685251
vt 0.125000 0.685251
vt 0.125000 0.685251
vt 0.125000 0.685251
vt 0.875000 0.685251
vt 0.875000 0.685251
vt 0.375000 0.064749
vt 0.500385 0.064749
vt 0.375000 0.064749
vt 0.500385 0.064749
vt 0.875000 0.685251
vt 0.875000 0.685251
vt 0.875000 0.685251
vt 0.625000 0.064749
vt 0.125000 0.685251
vt 0.125000 0.500000
vt 0.125000 0.750000
vt 0.375000 0.875000
vt 0.375000 0.250000
vt 0.375000 0.375000
vt 0.375000 0.064749
vt 0.625000 0.064749
vt 0.625000 0.064749
vt 0.375000 0.064749
vt 0.625000 0.064749
vt 0.625000 0.064749
vt 0.625000 0.064749
vt 0.625000 0.064749
vt 0.375000 0.064749
vt 0.375000 0.064749
vt 0.625000 0.064749
vt 0.375000 0.064749
vt 0.375000 0.064749
vt 0.375000 0.064749
vt 0.375000 0.064749
vt 0.375000 0.064749
vt 0.625000 0.125038
vt 0.375000 0.064749
vt 0.375000 0.064749
vt 0.375000 0.064749
vt 0.625000 0.187519
vt 0.375000 0.000000
vt 0.375000 1.000000
vn 0.0000 1.0000 0.0000
vn -0.2182 0.2299 0.9484
vn -0.7282 0.0972 -0.6784
vn 0.1320 -0.9534 0.2712
vn 0.8664 0.0049 0.4993
vn 0.1914 0.1670 -0.9672
vn 0.9596 0.2111 -0.1862
vn 0.2300 -0.9719 -0.0504
vn -0.7865 0.1670 0.5946
vn 0.9407 0.1691 0.2941
vn 0.2864 -0.9445 0.1610
vn 0.1391 -0.9815 -0.1319
vn 0.8812 0.1938 -0.4312
vn 0.0732 -0.9906 0.1157
vn 0.7437 0.1084 0.6597
vn -0.6319 -0.3913 -0.6690
vn 0.0846 -0.9817 -0.1704
vn 0.0902 -0.3045 -0.9482
vn -0.0055 0.3042 0.9526
vn -0.9013 0.1521 -0.4057
vn -0.4256 -0.8685 -0.2541
vn -0.2101 -0.9751 0.0714
vn 0.5489 0.1709 0.8182
vn -0.0098 0.9999 -0.0024
vn 0.1776 -0.9370 -0.3007
vn -0.2332 -0.9396 0.2504
vn -0.5819 -0.3446 -0.7367
vn 0.2447 -0.8945 0.3742
vn 0.2541 -0.2683 -0.9292
vn -0.0044 0.3802 0.9249
vn 0.0028 1.0000 0.0042
vn -0.9350 0.0949 -0.3416
vn 0.1462 -0.8515 -0.5035
vn -0.2503 -0.9624 0.1056
vn -0.4509 -0.8459 -0.2849
vn 0.3892 0.2320 0.8915
vn 0.5923 0.1648 0.7886
vn -0.0945 -0.9893 0.1114
vn 0.3075 0.5103 0.8032
vn 0.3546 0.9350 0.0000
vn 0.0000 0.4617 0.8870
vn 0.2140 -0.8894 0.4039
vn 0.1147 -0.2600 -0.9588
vn -0.2342 -0.9542 -0.1864
vn -0.5254 -0.8499 0.0412
vn -0.4416 -0.3415 -0.8296
vn -0.5514 -0.7936 0.2571
vn -0.5456 -0.6948 -0.4686
vn 0.7960 0.2988 0.5264
vn 0.2267 0.9736 -0.0262
vn 0.2209 0.5853 0.7802
vn 0.2005 0.9797 0.0000
vn 0.2572 -0.2961 -0.9199
vn -0.8661 -0.1476 -0.4776
vn -0.4602 0.0790 -0.8843
vn -0.5466 -0.4629 -0.6978
vn 0.3607 -0.8540 -0.3750
vn -0.1731 -0.9572 -0.2321
vn 0.3621 0.3351 0.8698
vn 0.3287 -0.9191 0.2174
vn -0.4497 -0.8446 -0.2907
vn -0.9183 0.3412 -0.2009
vn -0.8488 0.3105 0.4280
vn -0.1373 0.9744 -0.1778
vn -0.1406 0.9701 0.1977
vn -0.6896 0.0527 0.7223
vn -0.4605 -0.8197 0.3406
vn -0.1901 -0.9642 -0.1849
vn -0.2109 -0.9771 -0.0284
vn -0.2132 -0.9725 -0.0939
vn -0.2997 0.2692 -0.9153
vn -0.0233 -0.9618 0.2727
vn 0.2667 0.0991 0.9587
vn 0.2566 -0.1609 0.9530
vn -0.2949 -0.3652 -0.8830
vn -0.6944 -0.0658 0.7166
vn -0.7143 -0.3268 0.6189
vn -0.8204 -0.3753 -0.4314
vn 0.3216 -0.3592 0.8761
vn -0.4571 0.3085 -0.8342
vn -0.4689 -0.0588 -0.8813
vn -0.8884 0.0936 -0.4494
vn 0.3137 0.2036 -0.9274
vn -0.2429 -0.6256 0.7414
vn 0.8220 -0.3065 0.4800
vn -0.1938 0.2262 -0.9546
vn 0.1164 0.1952 -0.9738
vn 0.0344 -0.4988 0.8660
vn -0.0822 -0.5321 0.8427
vn 0.5924 -0.1639 0.7888
vn 0.3591 -0.2583 0.8968
vn -0.9301 -0.1309 -0.3431
vn 0.0846 -0.4947 0.8650
vn 0.2391 0.2437 -0.9399
vn -0.5531 0.3064 -0.7747
vn 0.4831 -0.2400 0.8421
vn -0.8919 -0.1964 -0.4073
vn 0.0020 -0.3346 0.9424
vn 0.0815 0.2595 -0.9623
vn -0.6030 0.3590 -0.7124
vn 0.7484 -0.1010 0.6555
vn 0.8689 -0.2520 -0.4261
vn 0.9067 -0.3049 0.2914
vn -0.7971 -0.1800 0.5763
vn 0.9384 -0.3130 -0.1463
vn 0.1800 -0.2440 -0.9529
vn 0.8669 -0.0079 0.4984
vn -0.7244 -0.1431 -0.6744
vn -0.1802 -0.3016 0.9363
usemtl Material
s off
f 94/1/1 15/2/1 7/3/1 88/4/1
f 132/5/2 88/6/2 7/7/2 98/8/2
f 105/9/3 17/10/3 5/11/3 100/12/3
f 93/13/4 16/14/4 4/15/4 89/16/4
f 103/17/5 14/18/5 3/19/5 99/20/5
f 131/21/6 90/22/6 1/23/6 97/24/6
f 104/25/7 20/26/7 10/27/7 101/28/7
f 96/29/8 18/30/8 12/31/8 91/32/8
f 15/2/1 11/33/1 24/34/1 23/35/1
f 95/36/1 17/37/1 11/33/1 92/38/1
f 98/39/9 7/40/9 15/41/9 102/42/9
f 101/28/10 10/27/10 14/18/10 103/17/10
f 91/32/11 12/31/11 16/14/11 93/13/11
f 92/38/1 11/33/1 15/2/1 94/1/1
f 90/43/1 5/44/1 17/37/1 95/36/1
f 87/45/12 2/46/12 18/30/12 96/29/12
f 97/24/13 1/23/13 20/26/13 104/25/13
f 9/47/14 13/48/14 25/49/14 22/50/14
f 106/51/15 23/52/15 33/53/15 110/54/15
f 107/55/16 21/56/16 27/57/16 109/58/16
f 19/59/17 9/47/17 22/50/17 21/60/17
f 11/33/1 17/37/1 26/61/1 24/34/1
f 105/9/18 19/62/18 21/56/18 107/55/18
f 102/42/19 15/41/19 23/52/19 106/51/19
f 29/63/1 30/64/1 38/65/1 37/66/1
f 108/67/20 30/68/20 32/69/20 109/58/20
f 21/60/21 22/50/21 28/70/21 27/71/21
f 24/34/1 26/61/1 32/72/1 30/64/1
f 22/50/22 25/49/22 31/73/22 28/70/22
f 23/35/1 24/34/1 30/64/1 29/63/1
f 110/54/23 33/53/23 35/74/23 111/75/23
f 23/35/24 29/63/24 35/76/24 33/77/24
f 28/70/25 31/73/25 40/78/25 39/79/25
f 31/73/26 25/49/26 34/80/26 36/81/26
f 112/82/27 39/83/27 45/84/27 114/85/27
f 41/86/1 37/66/1 43/87/1 47/88/1
f 31/73/28 36/81/28 42/89/28 40/78/28
f 108/67/29 28/90/29 39/83/29 112/82/29
f 111/75/30 35/74/30 41/91/30 113/92/30
f 35/76/31 29/63/31 37/66/31 41/86/31
f 115/93/32 43/94/32 44/95/32 114/85/32
f 46/96/33 48/97/33 56/98/33 54/99/33
f 40/78/34 42/89/34 48/97/34 46/96/34
f 51/100/1 47/88/1 55/101/1 57/102/1
f 39/79/35 40/78/35 46/96/35 45/103/35
f 37/66/1 38/65/1 44/104/1 43/87/1
f 116/105/36 49/106/36 51/107/36 117/108/36
f 41/86/1 47/88/1 51/100/1 49/109/1
f 113/92/37 41/91/37 49/106/37 116/105/37
f 48/97/38 42/89/38 50/110/38 52/111/38
f 119/112/39 57/113/39 63/114/39 121/115/39
f 57/102/40 55/101/40 61/116/40 63/117/40
f 117/108/41 51/107/41 57/113/41 119/112/41
f 48/97/42 52/111/42 58/118/42 56/98/42
f 47/88/1 43/87/1 53/119/1 55/101/1
f 115/93/43 46/120/43 54/121/43 118/122/43
f 60/123/44 62/124/44 68/125/44 66/126/44
f 62/124/45 64/127/45 70/128/45 68/125/45
f 55/101/40 53/119/40 59/129/40 61/116/40
f 118/122/46 54/121/46 60/130/46 120/131/46
f 56/98/47 58/118/47 64/127/47 62/124/47
f 54/99/48 56/98/48 62/124/48 60/123/48
f 123/132/49 69/133/49 77/134/49 126/135/49
f 69/136/1 67/137/1 73/138/1 75/139/1
f 63/117/50 61/116/50 67/137/50 69/136/50
f 121/115/51 63/114/51 69/133/51 123/132/51
f 61/116/52 59/129/52 65/140/52 67/137/52
f 120/131/53 60/130/53 66/141/53 122/142/53
f 124/143/54 72/144/54 74/145/54 125/146/54
f 125/146/55 74/145/55 82/147/55 128/148/55
f 67/137/1 65/140/1 71/149/1 73/138/1
f 122/142/56 66/141/56 72/144/56 124/143/56
f 68/125/57 70/128/57 76/150/57 74/151/57
f 66/126/58 68/125/58 74/151/58 72/152/58
f 126/135/59 77/134/59 79/153/59 127/154/59
f 76/150/60 70/128/60 78/155/60 80/156/60
f 74/151/61 76/150/61 84/157/61 82/158/61
f 69/136/1 75/139/1 79/159/1 77/160/1
f 128/148/62 82/147/62 84/161/62 129/162/62
f 129/162/63 84/161/63 86/163/63 130/164/63
f 79/159/64 75/139/64 83/165/64 85/166/64
f 75/139/65 73/138/65 81/167/65 83/165/65
f 127/154/66 79/153/66 85/168/66 130/164/66
f 76/150/67 80/156/67 86/169/67 84/157/67
f 6/170/68 87/45/68 96/29/68 19/59/68
f 1/23/1 90/43/1 95/36/1 20/26/1
f 10/27/1 92/38/1 94/1/1 14/18/1
f 9/47/69 91/32/69 93/13/69 13/48/69
f 20/26/1 95/36/1 92/38/1 10/27/1
f 19/59/70 96/29/70 91/32/70 9/47/70
f 100/12/71 5/11/71 90/22/71 131/21/71
f 13/48/72 93/13/72 89/16/72 8/171/72
f 99/20/73 3/19/73 88/6/73 132/5/73
f 14/18/1 94/1/1 88/4/1 3/19/1
f 4/15/74 99/20/74 132/5/74 89/172/74
f 6/173/75 100/12/75 131/21/75 87/174/75
f 80/175/76 127/154/76 130/164/76 86/163/76
f 83/176/77 129/162/77 130/164/77 85/168/77
f 81/177/78 128/148/78 129/162/78 83/176/78
f 78/178/79 126/135/79 127/154/79 80/175/79
f 65/179/80 122/142/80 124/143/80 71/180/80
f 73/181/81 125/146/81 128/148/81 81/177/81
f 71/180/82 124/143/82 125/146/82 73/181/82
f 59/182/83 120/131/83 122/142/83 65/179/83
f 64/183/84 121/115/84 123/132/84 70/184/84
f 70/184/85 123/132/85 126/135/85 78/178/85
f 53/185/86 118/122/86 120/131/86 59/182/86
f 43/94/87 115/93/87 118/122/87 53/185/87
f 52/186/88 117/108/88 119/112/88 58/187/88
f 58/187/89 119/112/89 121/115/89 64/183/89
f 42/188/90 113/92/90 116/105/90 50/189/90
f 50/189/91 116/105/91 117/108/91 52/186/91
f 46/120/92 115/93/92 114/85/92 45/84/92
f 36/190/93 111/75/93 113/92/93 42/188/93
f 30/68/94 108/67/94 112/82/94 38/191/94
f 38/191/95 112/82/95 114/85/95 44/95/95
f 34/192/96 110/54/96 111/75/96 36/190/96
f 28/90/97 108/67/97 109/58/97 27/57/97
f 13/193/98 102/42/98 106/51/98 25/194/98
f 17/10/99 105/9/99 107/55/99 26/195/99
f 26/195/100 107/55/100 109/58/100 32/69/100
f 25/194/101 106/51/101 110/54/101 34/192/101
f 2/46/102 97/24/102 104/25/102 18/30/102
f 12/31/103 101/28/103 103/17/103 16/14/103
f 8/196/104 98/39/104 102/42/104 13/193/104
f 18/30/105 104/25/105 101/28/105 12/31/105
f 87/174/106 131/21/106 97/24/106 2/46/106
f 16/14/107 103/17/107 99/20/107 4/15/107
f 19/62/108 105/9/108 100/12/108 6/173/108
f 89/172/109 132/5/109 98/8/109 8/197/109
