# MagicaVoxel @ Ephtracy

# group
o 

# material
mtllib object-20.mtl
usemtl palette

# normals
vn -1 0 0
vn 1 0 0
vn 0 0 1
vn 0 0 -1
vn 0 -1 0
vn 0 1 0

# texcoords
vt 0.947266 0.5
vt 0.951172 0.5
vt 0.955078 0.5
vt 0.994141 0.5

# verts
v 6.8 2.5 0.2
v 6.8 2.5 -0.4
v 6.8 2.6 0.2
v 6.8 2.6 -0.4
v 6.9 2.4 0.3
v 6.9 2.4 -0.3
v 6.9 2.5 0.3
v 6.9 2.5 0.2
v 6.9 2.5 -0.3
v 7 2.3 0.2
v 7 2.3 -0.2
v 7 2.4 0.2
v 7 2.4 -0.2
v 7 2.6 0.1
v 7 2.6 -0.3
v 7 2.7 0.1
v 7 2.7 -0.3
v 7.1 1.4 -2.98023e-008
v 7.1 1.4 -0.1
v 7.1 1.5 -2.98023e-008
v 7.1 1.5 -0.1
v 7.1 1.6 -2.98023e-008
v 7.1 1.6 -0.1
v 7.1 1.7 -2.98023e-008
v 7.1 1.7 -0.1
v 7.1 1.8 -2.98023e-008
v 7.1 1.8 -0.1
v 7.1 1.9 -2.98023e-008
v 7.1 1.9 -0.1
v 7.1 2.1 -2.98023e-008
v 7.1 2.1 -0.1
v 7.1 2.2 -2.98023e-008
v 7.1 2.2 -0.1
v 7.1 2.3 -2.98023e-008
v 7.1 2.3 -0.1
v 7.1 2.7 0.1
v 7.1 2.7 -0.3
v 7.1 2.8 0.1
v 7.1 2.8 -0.3
v 7.2 2.5 0.3
v 7.2 2.5 0.2
v 7.2 2.6 0.2
v 7.2 2.6 0.1
v 7.2 2.7 0.3
v 7.2 2.7 0.1
v 7.2 1.4 -2.98023e-008
v 7.2 1.4 -0.1
v 7.2 1.5 -2.98023e-008
v 7.2 1.5 -0.1
v 7.2 1.6 -2.98023e-008
v 7.2 1.6 -0.1
v 7.2 1.7 -2.98023e-008
v 7.2 1.7 -0.1
v 7.2 1.8 -2.98023e-008
v 7.2 1.8 -0.1
v 7.2 1.9 -2.98023e-008
v 7.2 1.9 -0.1
v 7.2 2.1 -2.98023e-008
v 7.2 2.1 -0.1
v 7.2 2.2 -2.98023e-008
v 7.2 2.2 -0.1
v 7.2 2.3 -2.98023e-008
v 7.2 2.3 -0.1
v 7.3 2.6 -2.98023e-008
v 7.3 2.6 -0.3
v 7.3 2.7 0.1
v 7.3 2.7 -2.98023e-008
v 7.3 2.8 0.1
v 7.3 2.8 -0.3
v 7.4 2.3 0.2
v 7.4 2.3 -0.2
v 7.4 2.4 0.2
v 7.4 2.4 -2.98023e-008
v 7.4 2.4 -0.2
v 7.4 2.5 -2.98023e-008
v 7.4 2.5 -0.3
v 7.4 2.5 -0.4
v 7.4 2.6 -2.98023e-008
v 7.4 2.6 -0.4
v 7.5 2.4 0.3
v 7.5 2.4 -2.98023e-008
v 7.5 2.4 -0.3
v 7.5 2.5 -2.98023e-008
v 7.5 2.5 -0.3
v 7.5 2.7 0.3
v 7.5 2.7 -2.98023e-008
v 6.9 2.4 0.3
v 6.9 2.5 0.3
v 7.2 2.4 0.3
v 7.2 2.5 0.3
v 7.2 2.7 0.3
v 7.5 2.4 0.3
v 7.5 2.7 0.3
v 6.8 2.5 0.2
v 6.8 2.6 0.2
v 6.9 2.5 0.2
v 7 2.3 0.2
v 7 2.4 0.2
v 7.2 2.4 0.2
v 7.2 2.5 0.2
v 7.2 2.6 0.2
v 7.4 2.3 0.2
v 7.4 2.4 0.2
v 7 2.6 0.1
v 7 2.7 0.1
v 7.1 2.7 0.1
v 7.1 2.8 0.1
v 7.2 2.6 0.1
v 7.2 2.7 0.1
v 7.3 2.7 0.1
v 7.3 2.8 0.1
v 7.1 1.4 -2.98023e-008
v 7.1 1.5 -2.98023e-008
v 7.1 1.6 -2.98023e-008
v 7.1 1.7 -2.98023e-008
v 7.1 1.8 -2.98023e-008
v 7.1 1.9 -2.98023e-008
v 7.1 2.1 -2.98023e-008
v 7.1 2.2 -2.98023e-008
v 7.1 2.3 -2.98023e-008
v 7.2 1.4 -2.98023e-008
v 7.2 1.5 -2.98023e-008
v 7.2 1.6 -2.98023e-008
v 7.2 1.7 -2.98023e-008
v 7.2 1.8 -2.98023e-008
v 7.2 1.9 -2.98023e-008
v 7.2 2.1 -2.98023e-008
v 7.2 2.2 -2.98023e-008
v 7.2 2.3 -2.98023e-008
v 7.3 2.6 -2.98023e-008
v 7.3 2.7 -2.98023e-008
v 7.4 2.5 -2.98023e-008
v 7.4 2.6 -2.98023e-008
v 7.5 2.5 -2.98023e-008
v 7.5 2.7 -2.98023e-008
v 7.1 1.4 -0.1
v 7.1 1.5 -0.1
v 7.1 1.6 -0.1
v 7.1 1.7 -0.1
v 7.1 1.8 -0.1
v 7.1 1.9 -0.1
v 7.1 2.1 -0.1
v 7.1 2.2 -0.1
v 7.1 2.3 -0.1
v 7.2 1.4 -0.1
v 7.2 1.5 -0.1
v 7.2 1.6 -0.1
v 7.2 1.7 -0.1
v 7.2 1.8 -0.1
v 7.2 1.9 -0.1
v 7.2 2.1 -0.1
v 7.2 2.2 -0.1
v 7.2 2.3 -0.1
v 7 2.3 -0.2
v 7 2.4 -0.2
v 7.4 2.3 -0.2
v 7.4 2.4 -0.2
v 6.9 2.4 -0.3
v 6.9 2.5 -0.3
v 7 2.6 -0.3
v 7 2.7 -0.3
v 7.1 2.7 -0.3
v 7.1 2.8 -0.3
v 7.3 2.6 -0.3
v 7.3 2.8 -0.3
v 7.4 2.5 -0.3
v 7.5 2.4 -0.3
v 7.5 2.5 -0.3
v 6.8 2.5 -0.4
v 6.8 2.6 -0.4
v 7.4 2.5 -0.4
v 7.4 2.6 -0.4
v 7.1 1.4 -2.98023e-008
v 7.2 1.4 -2.98023e-008
v 7.1 1.4 -0.1
v 7.2 1.4 -0.1
v 7 2.3 0.2
v 7.4 2.3 0.2
v 7.1 2.3 -2.98023e-008
v 7.2 2.3 -2.98023e-008
v 7.1 2.3 -0.1
v 7.2 2.3 -0.1
v 7 2.3 -0.2
v 7.4 2.3 -0.2
v 6.9 2.4 0.3
v 7.2 2.4 0.3
v 7.5 2.4 0.3
v 7 2.4 0.2
v 7.2 2.4 0.2
v 7.4 2.4 0.2
v 7.4 2.4 -2.98023e-008
v 7.5 2.4 -2.98023e-008
v 7 2.4 -0.2
v 7.4 2.4 -0.2
v 6.9 2.4 -0.3
v 7.5 2.4 -0.3
v 6.8 2.5 0.2
v 6.9 2.5 0.2
v 6.9 2.5 -0.3
v 7.4 2.5 -0.3
v 6.8 2.5 -0.4
v 7.4 2.5 -0.4
v 6.9 2.5 0.3
v 7.2 2.5 0.3
v 6.9 2.5 0.2
v 7.2 2.5 0.2
v 7.4 2.5 -2.98023e-008
v 7.5 2.5 -2.98023e-008
v 7.4 2.5 -0.3
v 7.5 2.5 -0.3
v 6.8 2.6 0.2
v 7.2 2.6 0.2
v 7 2.6 0.1
v 7.2 2.6 0.1
v 7.3 2.6 -2.98023e-008
v 7.4 2.6 -2.98023e-008
v 7 2.6 -0.3
v 7.3 2.6 -0.3
v 6.8 2.6 -0.4
v 7.4 2.6 -0.4
v 7.2 2.7 0.3
v 7.5 2.7 0.3
v 7 2.7 0.1
v 7.1 2.7 0.1
v 7.2 2.7 0.1
v 7.3 2.7 0.1
v 7.3 2.7 -2.98023e-008
v 7.5 2.7 -2.98023e-008
v 7 2.7 -0.3
v 7.1 2.7 -0.3
v 7.1 2.8 0.1
v 7.3 2.8 0.1
v 7.1 2.8 -0.3
v 7.3 2.8 -0.3

# faces
f 3/1/1 2/1/1 1/1/1
f 4/1/1 2/1/1 3/1/1
f 7/4/1 6/4/1 5/4/1
f 8/4/1 6/4/1 7/4/1
f 9/4/1 6/4/1 8/4/1
f 12/1/1 11/1/1 10/1/1
f 13/1/1 11/1/1 12/1/1
f 16/4/1 15/4/1 14/4/1
f 17/4/1 15/4/1 16/4/1
f 20/3/1 19/3/1 18/3/1
f 21/3/1 19/3/1 20/3/1
f 22/2/1 21/2/1 20/2/1
f 23/2/1 21/2/1 22/2/1
f 24/3/1 23/3/1 22/3/1
f 25/3/1 23/3/1 24/3/1
f 26/2/1 25/2/1 24/2/1
f 27/2/1 25/2/1 26/2/1
f 28/3/1 27/3/1 26/3/1
f 29/3/1 27/3/1 28/3/1
f 30/2/1 29/2/1 28/2/1
f 31/2/1 29/2/1 30/2/1
f 32/3/1 31/3/1 30/3/1
f 33/3/1 31/3/1 32/3/1
f 34/2/1 33/2/1 32/2/1
f 35/2/1 33/2/1 34/2/1
f 38/4/1 37/4/1 36/4/1
f 39/4/1 37/4/1 38/4/1
f 42/1/1 41/1/1 40/1/1
f 44/1/1 42/1/1 40/1/1
f 44/1/1 43/1/1 42/1/1
f 45/1/1 43/1/1 44/1/1
f 46/3/2 47/3/2 48/3/2
f 48/3/2 47/3/2 49/3/2
f 48/2/2 49/2/2 50/2/2
f 50/2/2 49/2/2 51/2/2
f 50/3/2 51/3/2 52/3/2
f 52/3/2 51/3/2 53/3/2
f 52/2/2 53/2/2 54/2/2
f 54/2/2 53/2/2 55/2/2
f 54/3/2 55/3/2 56/3/2
f 56/3/2 55/3/2 57/3/2
f 56/2/2 57/2/2 58/2/2
f 58/2/2 57/2/2 59/2/2
f 58/3/2 59/3/2 60/3/2
f 60/3/2 59/3/2 61/3/2
f 60/2/2 61/2/2 62/2/2
f 62/2/2 61/2/2 63/2/2
f 64/4/2 65/4/2 67/4/2
f 66/4/2 67/4/2 68/4/2
f 67/4/2 65/4/2 69/4/2
f 68/4/2 67/4/2 69/4/2
f 70/1/2 71/1/2 72/1/2
f 72/1/2 71/1/2 73/1/2
f 73/1/2 71/1/2 74/1/2
f 75/1/2 76/1/2 78/1/2
f 76/1/2 77/1/2 78/1/2
f 78/1/2 77/1/2 79/1/2
f 80/1/2 81/1/2 83/1/2
f 81/4/2 82/4/2 83/4/2
f 83/4/2 82/4/2 84/4/2
f 80/1/2 83/1/2 85/1/2
f 85/1/2 83/1/2 86/1/2
f 89/4/3 88/4/3 87/4/3
f 90/4/3 88/4/3 89/4/3
f 92/1/3 90/1/3 89/1/3
f 92/1/3 91/1/3 90/1/3
f 93/1/3 91/1/3 92/1/3
f 96/1/3 95/1/3 94/1/3
f 99/1/3 98/1/3 97/1/3
f 100/1/3 95/1/3 96/1/3
f 101/1/3 95/1/3 100/1/3
f 102/1/3 99/1/3 97/1/3
f 103/1/3 99/1/3 102/1/3
f 106/4/3 105/4/3 104/4/3
f 108/4/3 106/4/3 104/4/3
f 108/4/3 107/4/3 106/4/3
f 109/4/3 107/4/3 108/4/3
f 110/4/3 107/4/3 109/4/3
f 111/4/3 107/4/3 110/4/3
f 121/3/3 113/3/3 112/3/3
f 122/2/3 114/2/3 113/2/3
f 122/3/3 113/3/3 121/3/3
f 123/3/3 115/3/3 114/3/3
f 123/2/3 114/2/3 122/2/3
f 124/2/3 116/2/3 115/2/3
f 124/3/3 115/3/3 123/3/3
f 125/3/3 117/3/3 116/3/3
f 125/2/3 116/2/3 124/2/3
f 126/2/3 118/2/3 117/2/3
f 126/3/3 117/3/3 125/3/3
f 127/3/3 119/3/3 118/3/3
f 127/2/3 118/2/3 126/2/3
f 128/2/3 120/2/3 119/2/3
f 128/3/3 119/3/3 127/3/3
f 129/2/3 120/2/3 128/2/3
f 130/1/4 131/1/4 133/1/4
f 132/1/4 133/1/4 134/1/4
f 133/1/4 131/1/4 135/1/4
f 134/1/4 133/1/4 135/1/4
f 136/3/4 137/3/4 145/3/4
f 137/2/4 138/2/4 146/2/4
f 145/3/4 137/3/4 146/3/4
f 138/3/4 139/3/4 147/3/4
f 146/2/4 138/2/4 147/2/4
f 139/2/4 140/2/4 148/2/4
f 147/3/4 139/3/4 148/3/4
f 140/3/4 141/3/4 149/3/4
f 148/2/4 140/2/4 149/2/4
f 141/2/4 142/2/4 150/2/4
f 149/3/4 141/3/4 150/3/4
f 142/3/4 143/3/4 151/3/4
f 150/2/4 142/2/4 151/2/4
f 143/2/4 144/2/4 152/2/4
f 151/3/4 143/3/4 152/3/4
f 152/2/4 144/2/4 153/2/4
f 154/1/4 155/1/4 156/1/4
f 156/1/4 155/1/4 157/1/4
f 160/4/4 161/4/4 162/4/4
f 160/4/4 162/4/4 164/4/4
f 162/4/4 163/4/4 164/4/4
f 164/4/4 163/4/4 165/4/4
f 158/4/4 159/4/4 166/4/4
f 158/4/4 166/4/4 167/4/4
f 167/4/4 166/4/4 168/4/4
f 169/1/4 170/1/4 171/1/4
f 171/1/4 170/1/4 172/1/4
f 175/3/5 174/3/5 173/3/5
f 176/3/5 174/3/5 175/3/5
f 179/1/5 178/1/5 177/1/5
f 180/1/5 178/1/5 179/1/5
f 181/1/5 179/1/5 177/1/5
f 182/1/5 178/1/5 180/1/5
f 183/1/5 181/1/5 177/1/5
f 183/1/5 182/1/5 181/1/5
f 184/1/5 178/1/5 182/1/5
f 184/1/5 182/1/5 183/1/5
f 188/4/5 186/4/5 185/4/5
f 189/1/5 187/1/5 186/1/5
f 189/4/5 186/4/5 188/4/5
f 190/1/5 187/1/5 189/1/5
f 191/1/5 187/1/5 190/1/5
f 192/1/5 187/1/5 191/1/5
f 193/4/5 188/4/5 185/4/5
f 194/4/5 192/4/5 191/4/5
f 195/4/5 193/4/5 185/4/5
f 195/4/5 194/4/5 193/4/5
f 196/4/5 192/4/5 194/4/5
f 196/4/5 194/4/5 195/4/5
f 199/1/5 198/1/5 197/1/5
f 201/1/5 199/1/5 197/1/5
f 201/1/5 200/1/5 199/1/5
f 202/1/5 200/1/5 201/1/5
f 203/4/6 204/4/6 205/4/6
f 205/4/6 204/4/6 206/4/6
f 207/4/6 208/4/6 209/4/6
f 209/4/6 208/4/6 210/4/6
f 211/1/6 212/1/6 213/1/6
f 213/1/6 212/1/6 214/1/6
f 211/1/6 213/1/6 217/1/6
f 215/1/6 216/1/6 218/1/6
f 211/1/6 217/1/6 219/1/6
f 217/1/6 218/1/6 219/1/6
f 218/1/6 216/1/6 220/1/6
f 219/1/6 218/1/6 220/1/6
f 221/1/6 222/1/6 225/1/6
f 225/1/6 222/1/6 226/1/6
f 226/1/6 222/1/6 227/1/6
f 227/1/6 222/1/6 228/1/6
f 223/4/6 224/4/6 229/4/6
f 229/4/6 224/4/6 230/4/6
f 231/4/6 232/4/6 233/4/6
f 233/4/6 232/4/6 234/4/6
